<?xml version="1.0" encoding="UTF-8" standalone="no"?>
<!-- Created with Inkscape (http://www.inkscape.org/) -->

<svg
   xmlns:dc="http://purl.org/dc/elements/1.1/"
   xmlns:cc="http://creativecommons.org/ns#"
   xmlns:rdf="http://www.w3.org/1999/02/22-rdf-syntax-ns#"
   xmlns:svg="http://www.w3.org/2000/svg"
   xmlns="http://www.w3.org/2000/svg"
   xmlns:sodipodi="http://sodipodi.sourceforge.net/DTD/sodipodi-0.dtd"
   xmlns:inkscape="http://www.inkscape.org/namespaces/inkscape"
   width="70.614838mm"
   height="75.46727mm"
   viewBox="0 0 70.614838 75.46727"
   version="1.1"
   id="svg1031"
   inkscape:version="0.92.2 (5c3e80d, 2017-08-06)"
   sodipodi:docname="eiung_vowel.svg">
  <defs
     id="defs1025" />
  <sodipodi:namedview
     id="base"
     pagecolor="#ffffff"
     bordercolor="#666666"
     borderopacity="1.0"
     inkscape:pageopacity="0.0"
     inkscape:pageshadow="2"
     inkscape:zoom="0.35"
     inkscape:cx="-108.76453"
     inkscape:cy="-17.773567"
     inkscape:document-units="mm"
     inkscape:current-layer="layer1"
     showgrid="false"
     fit-margin-top="0"
     fit-margin-left="0"
     fit-margin-right="0"
     fit-margin-bottom="0"
     inkscape:window-width="1920"
     inkscape:window-height="1000"
     inkscape:window-x="-11"
     inkscape:window-y="-11"
     inkscape:window-maximized="1" />
  <metadata
     id="metadata1028">
    <rdf:RDF>
      <cc:Work
         rdf:about="">
        <dc:format>image/svg+xml</dc:format>
        <dc:type
           rdf:resource="http://purl.org/dc/dcmitype/StillImage" />
        <dc:title></dc:title>
      </cc:Work>
    </rdf:RDF>
  </metadata>
  <g
     inkscape:label="Layer 1"
     inkscape:groupmode="layer"
     id="layer1"
     transform="translate(12.422122,-68.663478)">
    <path
       style="opacity:1;fill:#ffffff;fill-opacity:1;stroke:none;stroke-width:1;stroke-linecap:round;stroke-linejoin:round;stroke-miterlimit:4;stroke-dasharray:none;stroke-opacity:1"
       id="path1014"
       d="m 15.477632,73.379608 c -0.802071,0.2634 -1.57901,0.60252 -2.31117,1.02403 -0.243481,0.14017 -0.47732,0.29645 -0.71598,0.44468 -1.477641,0.97687 -2.8075606,2.17977 -3.9542306,3.52951 -0.253099,0.29792 -0.4892,0.60987 -0.733799,0.9148 -1.18549,1.64024 -2.217971,3.40925 -2.90038,5.32121 -0.134791,0.37766 -0.24009,0.76521 -0.360131,1.14782 -0.49544,1.99745 -0.769839,4.06786 -0.68315,6.12903 0.0169,0.40074 0.0618,0.7998 0.0926,1.1997 0.167,1.57485 0.553561,3.12491 1.16519,4.58709 0.36242,0.86641 0.60504,1.25794 1.05673,2.08352 1.05904,1.766752 2.366811,3.386322 3.9278806,4.735282 0.31619,0.27322 0.651,0.52412 0.9765,0.78619 1.320139,0.97356 2.748839,1.8321 4.30419,2.37468 0.961729,0.33549 1.325118,0.37587 2.326601,0.58339 2.110279,0.35559 4.277048,0.38611 6.383298,-0.0221 0.42106,-0.0816 0.834292,-0.19941 1.251431,-0.29911 2.210319,-0.6224 4.227071,-1.74882 6.051381,-3.12881 0.391559,-0.29619 0.765148,-0.61543 1.14772,-0.92315 1.476978,-1.28413 2.814839,-2.74039 3.902728,-4.371212 0.640771,-0.96055 0.860632,-1.43918 1.400332,-2.45932 0.9242,-2.02029 1.556318,-4.18157 1.77438,-6.3969 0.041,-0.41679 0.0506,-0.83609 0.0759,-1.25414 0.0344,-1.61739 -0.11236,-3.24419 -0.55168,-4.80577 -0.27065,-0.96206 -0.427328,-1.24855 -0.81757,-2.16521 -0.683419,-1.40738 -1.56138,-2.714 -2.612279,-3.8733 -0.661371,-0.72959 -1.01428,-1.03166 -1.737331,-1.70879 -1.195999,-1.03973 -2.516949,-1.93292 -3.93886,-2.63469 -0.91286,-0.45054 -1.25445,-0.55453 -2.20699,-0.91709 -1.97186,-0.64437 -4.050879,-0.92309 -6.12344,-0.80366 -0.429839,0.0248 -0.857009,0.0839 -1.28551,0.12583 -1.29795,0.21565 -2.606339,0.48667 -3.829039,0.98919 -1.05523,0.43369 -2.35725,1.15255 -3.343681,1.67072 -2.37373,1.24333 -4.1320686,-2.11363 -1.758349,-3.35696 v 0 c 1.369099,-0.71524 2.46575,-1.33445 3.89708,-1.90668 1.497989,-0.59887 3.094861,-0.9243 4.682339,-1.16951 0.528831,-0.0473 1.056201,-0.1155 1.586471,-0.14183 2.55411,-0.12685 5.11106,0.23934 7.532669,1.0552 1.15905,0.44841 1.53715,0.56294 2.651472,1.12161 1.70987,0.85725 3.296819,1.94389 4.73175,3.20704 0.85112,0.80308 1.26202,1.15616 2.04234,2.03126 1.295768,1.45316 2.376659,3.08573 3.206528,4.84716 0.497011,1.20125 0.674391,1.5222 1.0165,2.78438 0.52012,1.91893 0.694671,3.91288 0.639262,5.89558 -0.0348,0.51089 -0.0508,1.0234 -0.104262,1.53267 -0.27872,2.6554 -1.049599,5.24252 -2.182788,7.65504 -0.663782,1.239672 -0.890051,1.738002 -1.683121,2.910752 -1.286391,1.90225 -2.858021,3.60209 -4.596691,5.09715 -0.44365,0.35364 -0.876818,0.72083 -1.330949,1.06092 -2.221809,1.66391 -4.687811,2.99111 -7.374782,3.72288 -0.522128,0.11957 -1.039759,0.26085 -1.566388,0.35871 -2.550541,0.47398 -5.170379,0.42398 -7.719801,-0.0216 -1.301711,-0.28354 -1.719361,-0.32905 -2.974069,-0.78333 -1.89669,-0.68672 -3.645421,-1.7323 -5.2541306,-2.93803 -0.391909,-0.31988 -0.795149,-0.62637 -1.175739,-0.95966 -1.85881,-1.62778 -3.417451,-3.57269 -4.672,-5.69726 -0.574701,-1.06608 -0.821121,-1.45651 -1.28304,-2.583952 -0.73453097,-1.79287 -1.19159997,-3.69093 -1.38759097,-5.61674 -0.0343,-0.48719 -0.0854,-0.97349 -0.10278,-1.46158 -0.0873,-2.45663 0.24311,-4.92139 0.86204,-7.29536 0.15240997,-0.47231 0.28743097,-0.95059 0.45722997,-1.41693 0.822,-2.25741 2.045131,-4.35008 3.4642,-6.28048 0.291811,-0.36013 0.5734,-0.72879 0.87542,-1.08041 1.387991,-1.61594 2.994971,-3.05039 4.7796106,-4.21433 0.31307,-0.19051 0.62036,-0.39084 0.939199,-0.57152 1.046151,-0.59283 2.165521,-1.07266 3.327501,-1.38368 2.627601,-0.52552 3.370799,3.19047 0.743191,3.716 z"
       inkscape:connector-curvature="0" />
    <path
       style="opacity:1;fill:#ffffff;fill-opacity:1;stroke:none;stroke-width:1;stroke-linecap:round;stroke-linejoin:round;stroke-miterlimit:4;stroke-dasharray:none;stroke-opacity:1"
       id="path1587"
       d="m -6.2427286,123.30313 c 0.66965,0.0212 1.33392,-0.0104 1.9978,-0.0971 0.73501,-0.13858 1.45995,-0.35605 2.12473,-0.70189 0.14662,-0.11433 0.45328,-0.22057 0.49652,-0.43841 0.002,-0.0106 -0.0127,-0.0186 -0.0135,-0.0293 -0.002,-0.0216 0.004,-0.0432 0.006,-0.0648 0.0173,-0.15384 -0.0316,-0.34917 -0.11904,-0.47958 -0.14268,-0.0517 -0.28023,-0.0945 -0.42928,-0.13243 -0.58309,-0.12991 -1.1788,-0.15995 -1.76752,-0.0627 -0.85454,0.26998 -1.57593,0.80115 -2.25476,1.36869 -0.83384,0.71822 -1.460884,1.62181 -1.957554,2.59565 -0.23201,0.49644 -0.42364,1.02052 -0.469,1.57075 -0.023,0.27924 -0.007,0.41593 0.007,0.69768 0.0814,0.57542 0.40773,0.97126 0.84842,1.32212 0.743794,0.54047 1.662954,0.65257 2.551004,0.75663 0.85076,0.0495 1.70918,0.13719 2.56275,0.10771 0.38443,-0.0132 1.14413,-0.10874 1.49593,-0.14877 2.66301,-0.29803 3.08448,3.46805 0.42147003,3.76608 v 0 c -0.77301003,0.0853 -1.19676003,0.14734 -1.97526003,0.17182 -0.98384,0.031 -1.98962,-0.0699 -2.97,-0.13589 -0.66532,-0.0854 -0.98772,-0.10832 -1.64284,-0.26686 -1.085384,-0.26263 -2.105924,-0.71538 -2.9721044,-1.42851 -0.19393,-0.18137 -0.4004,-0.35023 -0.5818,-0.54414 -0.90425,-0.96666 -1.41046,-2.17872 -1.52557,-3.49086 -0.011,-0.60444 -0.0356,-0.80304 0.0395,-1.41021 0.11757,-0.95046 0.4327,-1.86142 0.84999,-2.71954 0.11616,-0.21964 0.22482,-0.4434 0.34847,-0.65891 0.67266,-1.17231 1.5440804,-2.22714 2.5638804,-3.113 0.21437,-0.17402 0.42282,-0.3556 0.64311,-0.52206 1.047614,-0.79162 2.227814,-1.40736 3.519694,-1.67518 0.22879,-0.027 0.45654,-0.0651 0.68637,-0.081 0.96612,-0.0666 1.94779,0.0719 2.87436003,0.33937 0.19428,0.076 0.3944,0.13852 0.58284,0.22804 0.94184,0.44745 1.67936997,1.1827 2.10019997,2.13823 0.0592,0.173 0.12817,0.34295 0.17757,0.519 0.24393,0.86932 0.2173,1.78836 -0.0689,2.64264 -0.0741,0.17722 -0.13473,0.36066 -0.22221,0.53166 -0.46501,0.90896 -1.23313997,1.57094 -2.12555997,2.0427 -1.05575003,0.50927 -2.16824003,0.88918 -3.33109003,1.0651 -0.8214,0.10097 -1.64396,0.15259 -2.47194,0.1269 -2.679644,0 -2.679644,-3.78958 0,-3.78958 z"
       inkscape:connector-curvature="0" />
    <path
       style="opacity:1;fill:#ffffff;fill-opacity:1;stroke:none;stroke-width:1;stroke-linecap:round;stroke-linejoin:round;stroke-miterlimit:4;stroke-dasharray:none;stroke-opacity:1"
       id="path1591"
       d="m 10.570322,123.63982 c 0,0.73433 0,1.46864 0,2.20297 0.0165,0.7807 -0.008,1.55919 -0.0641,2.33772 -0.0469,0.55693 -0.161,1.10332 -0.258289,1.65238 -0.0439,0.24773 -0.06,0.49871 -0.0677,0.74978 0.001,0.31784 -0.006,0.6333 -0.0293,0.95033 -0.01,0.0722 -0.0195,0.14443 -0.0292,0.21664 -0.3720796,2.65369 -4.1249596,2.12749 -3.7528806,-0.52618 v 0 c 0.004,-0.0289 0.009,-0.0578 0.0133,-0.0867 0.002,0.0183 0.004,0.0734 0.005,0.055 0.0147,-0.24436 -0.0128,-0.49127 0.006,-0.73578 0.0152,-0.43336 0.0485,-0.86624 0.12541,-1.2936 0.0758,-0.41772 0.16343,-0.83283 0.20841,-1.25568 0.05,-0.68752 0.0703,-1.37433 0.0542,-2.06391 0,-0.73433 0,-1.46864 0,-2.20297 0,-2.67964 3.7895896,-2.67964 3.7895896,0 z"
       inkscape:connector-curvature="0" />
    <path
       style="opacity:1;fill:#ffffff;fill-opacity:1;stroke:none;stroke-width:1;stroke-linecap:round;stroke-linejoin:round;stroke-miterlimit:4;stroke-dasharray:none;stroke-opacity:1"
       id="path1594"
       d="m 10.047611,118.65853 c 0.003,0.0105 0.006,0.021 0.009,0.0315 0.22174,2.67045 -3.5548396,2.98404 -3.7765896,0.31359 v 0 c -0.007,-0.11501 -0.0148,-0.23003 -0.0221,-0.34504 0,-2.67964 3.7895896,-2.67964 3.7895896,0 z"
       inkscape:connector-curvature="0" />
    <path
       style="opacity:1;fill:#ffffff;fill-opacity:1;stroke:none;stroke-width:1;stroke-linecap:round;stroke-linejoin:round;stroke-miterlimit:4;stroke-dasharray:none;stroke-opacity:1"
       id="path1596"
       d="m 16.712051,120.64992 c 0,0.83797 0,1.67595 0,2.51393 0.01101,0.94899 -0.0344,1.89934 0.0468,2.84592 0.0677,0.66193 0.24697,1.3046 0.559069,1.89269 0.213673,0.39222 0.511842,0.68625 0.926151,0.84998 0.362421,0.11652 0.45685,0.0372 0.753192,-0.15426 0.714039,-0.46738 1.142759,-1.20917 1.569709,-1.9251 0.357719,-0.65474 0.74036,-1.30392 0.988841,-2.01076 0.0839,-0.23852 0.184729,-0.62971 0.249689,-0.86952 0.228608,-0.73726 0.306229,-1.50373 0.421601,-2.26269 0.029,-0.15306 0.0579,-0.30613 0.0869,-0.4592 0.505068,-2.63161 4.226729,-1.91732 3.721658,0.71429 v 0 c -0.02119,0.10821 -0.0424,0.21642 -0.0636,0.32464 -0.143021,0.90054 -0.238752,1.81072 -0.512141,2.68599 -0.134731,0.48609 -0.213151,0.80455 -0.390789,1.28683 -0.328261,0.89127 -0.79388,1.7227 -1.257591,2.54836 -0.866191,1.42317 -1.688291,2.57686 -3.193529,3.39267 -0.601832,0.26289 -0.78962,0.3892 -1.448152,0.49684 -0.903938,0.14774 -1.797259,-0.0164 -2.627799,-0.38222 -0.187421,-0.0997 -0.381191,-0.1883 -0.562251,-0.29914 -0.89227,-0.54618 -1.572479,-1.35191 -2.06369,-2.26671 -0.0886,-0.18682 -0.184379,-0.37039 -0.26582,-0.56044 -0.367429,-0.85746 -0.573809,-1.77443 -0.668969,-2.69986 -0.0798,-1.04815 -0.0599,-2.09772 -0.0589,-3.14831 0,-0.83798 0,-1.67596 0,-2.51393 0,-2.67964 3.789579,-2.67964 3.789579,0 z"
       inkscape:connector-curvature="0" />
    <path
       style="opacity:1;fill:#ffffff;fill-opacity:1;stroke:none;stroke-width:1;stroke-linecap:round;stroke-linejoin:round;stroke-miterlimit:4;stroke-dasharray:none;stroke-opacity:1"
       id="path1624"
       d="m 50.563793,122.34677 c -0.545352,0.16871 -1.06747,0.42078 -1.55275,0.71951 -0.764691,0.50001 -1.44631,1.10657 -2.017681,1.81843 -0.32236,0.44442 -0.61931,0.92051 -0.79774,1.44317 -0.0907,0.26564 -0.107251,0.39476 -0.162959,0.67067 -0.121452,0.59274 -0.0122,1.18126 0.26317,1.71415 0.314799,0.51478 0.812218,0.82839 1.361969,1.04437 0.829019,0.28514 1.452409,0.26609 2.29153,0.0751 0.515821,-0.16418 1.01378,-0.40823 1.444271,-0.73946 0.210158,-0.16171 0.360428,-0.32819 0.546168,-0.51705 0.469202,-0.49419 0.67323,-1.12078 0.791271,-1.77615 0.063,-0.48551 0.0882,-0.98509 0.0346,-1.47341 -0.02019,-0.18396 -0.0819,-0.42852 -0.122399,-0.60574 -0.131482,-0.49151 -0.376002,-0.92194 -0.737272,-1.27635 -0.239379,-0.15946 -0.50264,-0.1996 -0.781659,-0.23683 -0.28286,-0.0346 -0.570089,-0.01 -0.853921,-0.003 -2.67893,0.0618 -2.766259,-3.72682 -0.0873,-3.78857 v 0 c 0.516501,-0.0109 1.037111,-0.0336 1.549529,0.0505 1.190141,0.20738 2.044571,0.54757 2.941442,1.38908 0.12746,0.14062 0.262268,0.27491 0.382378,0.42186 0.630222,0.7711 1.04543,1.68792 1.292191,2.64818 0.10591,0.51245 0.153109,0.67112 0.201581,1.20481 0.0731,0.8051 0.02119,1.62274 -0.10463,2.41919 -0.0458,0.21474 -0.0818,0.4318 -0.1373,0.64424 -0.302861,1.16004 -0.885722,2.21993 -1.714931,3.087 -0.457481,0.44 -0.591061,0.5983 -1.116791,0.97739 -0.832228,0.60008 -1.780288,1.02722 -2.770428,1.28694 -0.25314,0.0485 -0.504132,0.11004 -0.759431,0.14544 -1.305279,0.18105 -2.614131,0 -3.839149,-0.47578 -0.241562,-0.11385 -0.490461,-0.21325 -0.72467,-0.34152 -1.099521,-0.60217 -1.979271,-1.51649 -2.55271,-2.62776 -0.0951,-0.22773 -0.204201,-0.45009 -0.28524,-0.68318 -0.377941,-1.08704 -0.435411,-2.26124 -0.211762,-3.38556 0.134372,-0.57748 0.155181,-0.75221 0.366832,-1.31262 0.326898,-0.86564 0.814059,-1.66312 1.374039,-2.39604 0.157081,-0.18645 0.307369,-0.37885 0.471239,-0.55936 0.74191,-0.81724 1.616771,-1.505 2.539,-2.10596 0.77298,-0.44638 1.576192,-0.85404 2.438411,-1.10007 2.576531,-0.73616 3.61761,2.90762 1.041079,3.64377 z"
       inkscape:connector-curvature="0" />
    <path
       style="opacity:1;fill:#ffffff;fill-opacity:1;stroke:none;stroke-width:1;stroke-linecap:round;stroke-linejoin:round;stroke-miterlimit:4;stroke-dasharray:none;stroke-opacity:1"
       id="path1626"
       d="m 57.746833,122.25659 c 0.265589,0.86097 0.338289,1.76293 0.394669,2.65725 0.0515,1.07818 0.0485,2.158 0.0503,3.23713 -0.004,1.25232 0.01241,2.50486 -0.01799,3.7569 -0.0522,1.06251 -0.21335,2.1165 -0.492109,3.14348 -0.194421,0.71628 -0.292471,0.94425 -0.544042,1.64285 -0.431538,1.11422 -0.976648,2.18604 -1.646899,3.17635 -0.414639,0.61265 -0.60828,0.82714 -1.069181,1.39581 -0.889079,1.02828 -1.936258,1.92826 -3.213198,2.4333 -0.22375,0.0885 -0.456991,0.15078 -0.68549,0.22619 -0.876081,0.24381 -1.790132,0.28448 -2.672541,0.0434 -0.464891,-0.127 -0.63713,-0.22741 -1.05397,-0.42323 -0.675751,-0.34203 -1.18962,-0.88157 -1.687671,-1.43666 -1.769208,-2.01258 1.076981,-4.51461 2.846181,-2.50206 v 0 c 0.156821,0.186 0.313449,0.37772 0.50192,0.53226 0.341611,0.18447 0.53018,0.28803 0.941779,0.1673 0.8925,-0.2344 1.482672,-0.74586 2.08611,-1.43545 0.32731,-0.39819 0.515842,-0.61028 0.80814,-1.03417 0.522542,-0.75777 0.946881,-1.58089 1.28297,-2.43695 0.425651,-1.15866 0.76626,-2.34444 0.809612,-3.58746 0.0317,-1.21816 0.01029,-2.43702 0.0168,-3.65553 -0.0021,-1.00346 0.0021,-2.00756 -0.0431,-3.01025 -0.034,-0.56692 -0.068,-1.13935 -0.207377,-1.69211 -0.847381,-2.54213 2.74774,-3.7405 3.595108,-1.19837 z"
       inkscape:connector-curvature="0" />
    <path
       style="opacity:1;fill:#ffffff;fill-opacity:1;stroke:none;stroke-width:1;stroke-linecap:round;stroke-linejoin:round;stroke-miterlimit:4;stroke-dasharray:none;stroke-opacity:1"
       id="path1628"
       d="m 31.328751,121.55249 c 0,0.8453 0,1.6906 0,2.5359 -0.0132,0.86225 0.01701,1.72459 0.0882,2.58391 0.0836,0.83954 0.12962,1.68176 0.1558,2.52483 -0.0109,0.51903 0.0388,1.03362 0.0888,1.54918 -0.0136,0.17029 0.149831,1.40288 -0.009,0.42203 -4.023749,0.60209 -3.719359,1.47741 -3.720399,-0.53659 0.0011,-0.83054 -0.01,-1.66099 0.01609,-2.49118 0.0662,-1.43165 0.58021,-2.76139 1.183079,-4.04207 0.561491,-1.14416 1.360651,-2.13377 2.398202,-2.87921 0.201469,-0.14475 0.416409,-0.26979 0.62461,-0.40468 0.79689,-0.45121 1.66012,-0.78411 2.573009,-0.89807 0.557681,-0.0696 0.742169,-0.0409 1.294331,-0.02 0.95027,0.10848 1.820098,0.46688 2.562558,1.07107 0.381641,0.31056 0.546172,0.52395 0.866651,0.88514 0.80183,1.05009 1.15547,2.12125 1.39314,3.40119 0.149111,0.94988 0.157411,1.91362 0.163671,2.87281 0.0011,0.63892 -0.004,1.27784 -0.006,1.91676 -2.59e-4,0.11378 -5.29e-4,0.22756 -7.94e-4,0.34134 -0.007,2.67964 -3.796159,2.67032 -3.789579,-0.009 v 0 c 2.64e-4,-0.11504 5.29e-4,-0.23008 7.94e-4,-0.34512 0.0021,-0.62654 0.007,-1.25307 0.006,-1.87962 -0.005,-0.74452 -0.005,-1.49273 -0.104939,-2.23183 -0.0918,-0.55578 -0.23013,-1.09644 -0.525582,-1.58367 -0.219398,-0.26611 -0.419669,-0.55349 -0.76644,-0.65447 -0.617199,-0.0563 -1.089199,0.0373 -1.64316,0.33779 -0.764289,0.45915 -1.222669,0.88802 -1.623179,1.7052 -0.387451,0.80676 -0.753391,1.6387 -0.81897,2.54322 -0.0284,0.78723 -0.009,1.57517 -0.01389,2.3628 0.0011,2.1193 0.319278,1.0203 -3.72455,1.53818 -0.0588,-0.35199 -0.0911,-0.69945 -0.10727,-1.05585 -0.058,-0.59828 -0.11163,-1.19673 -0.104683,-1.79866 -0.02371,-0.78036 -0.0674,-1.55979 -0.145338,-2.33681 -0.0757,-0.9608 -0.11626,-1.9243 -0.10047,-2.88828 0,-0.84529 0,-1.69059 0,-2.53589 0,-2.67964 3.78959,-2.67964 3.78959,0 z"
       inkscape:connector-curvature="0" />
  </g>
</svg>
