<?xml version="1.0" encoding="UTF-8" standalone="no"?>
<!-- Created with Inkscape (http://www.inkscape.org/) -->

<svg
   xmlns:dc="http://purl.org/dc/elements/1.1/"
   xmlns:cc="http://creativecommons.org/ns#"
   xmlns:rdf="http://www.w3.org/1999/02/22-rdf-syntax-ns#"
   xmlns:svg="http://www.w3.org/2000/svg"
   xmlns="http://www.w3.org/2000/svg"
   xmlns:sodipodi="http://sodipodi.sourceforge.net/DTD/sodipodi-0.dtd"
   xmlns:inkscape="http://www.inkscape.org/namespaces/inkscape"
   width="33.743702mm"
   height="26.386932mm"
   viewBox="0 0 33.743702 26.386932"
   version="1.1"
   id="svg3685"
   inkscape:version="0.92.2 (5c3e80d, 2017-08-06)"
   sodipodi:docname="eu.svg">
  <defs
     id="defs3679">
    <marker
       inkscape:stockid="Arrow2Mend"
       orient="auto"
       refY="0"
       refX="0"
       id="Arrow2Mend-4-4"
       style="overflow:visible"
       inkscape:isstock="true">
      <path
         inkscape:connector-curvature="0"
         id="path1709-9-2"
         style="fill:#ffffff;fill-opacity:1;fill-rule:evenodd;stroke:#ffffff;stroke-width:0.625;stroke-linejoin:round;stroke-opacity:1"
         d="M 8.7185878,4.0337352 -2.2072895,0.01601326 8.7185884,-4.0017078 c -1.7454984,2.3720609 -1.7354408,5.6174519 -6e-7,8.035443 z"
         transform="scale(-0.6)" />
    </marker>
    <marker
       inkscape:stockid="Arrow2Mend"
       orient="auto"
       refY="0"
       refX="0"
       id="Arrow2Mend-7"
       style="overflow:visible"
       inkscape:isstock="true">
      <path
         inkscape:connector-curvature="0"
         id="path1709-4"
         style="fill:#ffffff;fill-opacity:1;fill-rule:evenodd;stroke:#ffffff;stroke-width:0.625;stroke-linejoin:round;stroke-opacity:1"
         d="M 8.7185878,4.0337352 -2.2072895,0.01601326 8.7185884,-4.0017078 c -1.7454984,2.3720609 -1.7354408,5.6174519 -6e-7,8.035443 z"
         transform="scale(-0.6)" />
    </marker>
  </defs>
  <sodipodi:namedview
     id="base"
     pagecolor="#ffffff"
     bordercolor="#666666"
     borderopacity="1.0"
     inkscape:pageopacity="0.0"
     inkscape:pageshadow="2"
     inkscape:zoom="0.35"
     inkscape:cx="-417.66094"
     inkscape:cy="95.579345"
     inkscape:document-units="mm"
     inkscape:current-layer="layer1"
     showgrid="false"
     fit-margin-top="0"
     fit-margin-left="0"
     fit-margin-right="0"
     fit-margin-bottom="0"
     inkscape:window-width="1920"
     inkscape:window-height="1000"
     inkscape:window-x="-11"
     inkscape:window-y="-11"
     inkscape:window-maximized="1" />
  <metadata
     id="metadata3682">
    <rdf:RDF>
      <cc:Work
         rdf:about="">
        <dc:format>image/svg+xml</dc:format>
        <dc:type
           rdf:resource="http://purl.org/dc/dcmitype/StillImage" />
        <dc:title></dc:title>
      </cc:Work>
    </rdf:RDF>
  </metadata>
  <g
     inkscape:label="Layer 1"
     inkscape:groupmode="layer"
     id="layer1"
     transform="translate(-69.30672,-147.7351)">
    <path
       style="opacity:1;fill:#ffffff;fill-opacity:1;stroke:none;stroke-width:1;stroke-linecap:round;stroke-linejoin:round;stroke-miterlimit:4;stroke-dasharray:none;stroke-opacity:1"
       id="path1670-4"
       d="m 81.981652,154.42612 c -0.38452,0.35692 -0.701201,0.77256 -0.972181,1.21996 -0.45547,0.71682 -0.67717,1.52775 -0.84997,2.35011 -0.16159,0.91174 -0.21413,1.84651 -0.13162,2.77007 0.0165,0.1852 0.049,0.36863 0.0734,0.55295 0.15234,0.90438 0.43004,1.80037 0.92062,2.58233 0.0859,0.13688 0.1874,0.26329 0.2811,0.39494 0.50148,0.63778 1.15994,1.09014 1.934581,1.33112 0.16974,0.0528 0.344199,0.089 0.516299,0.13354 1.059241,0.2284 2.14574,0.21993 3.211891,0.0445 0.241169,-0.0397 0.479599,-0.0945 0.7194,-0.14173 0.926989,-0.21987 1.843589,-0.52441 2.670359,-1.00598 0.46848,-0.27287 0.60705,-0.40245 1.033011,-0.73236 0.730339,-0.59693 1.335919,-1.32357 1.703589,-2.19769 0.063,-0.14978 0.10888,-0.3062 0.16334,-0.45929 0.18665,-0.64428 0.291001,-1.31691 0.265911,-1.98936 -0.0136,-0.36335 -0.0698,-0.60443 -0.13357,-0.96337 -0.23578,-1.07266 -0.836991,-1.98808 -1.503211,-2.84041 -0.67852,-0.77917 -1.49381,-1.44594 -2.41774,-1.91489 -0.18297,-0.0929 -0.374,-0.1689 -0.56099,-0.25336 -1.009049,-0.36558 -2.08848,-0.53575 -3.16119,-0.44461 -0.22308,0.0189 -0.44395,0.0584 -0.66592,0.0876 -0.903769,0.12553 -1.716719,0.55302 -2.538749,0.92085 -2.137861,0.94701 -3.477131,-2.07638 -1.339271,-3.02339 v 0 c 1.12402,-0.49374 2.24715,-1.03248 3.48248,-1.18046 0.325431,-0.0367 0.64949,-0.0889 0.97629,-0.11025 1.58338,-0.10336 3.166461,0.16959 4.63915,0.75115 0.27373,0.1295 0.55334,0.24719 0.82116,0.38851 1.298661,0.68531 2.441011,1.63995 3.38445,2.76096 0.168171,0.22062 0.34428,0.43542 0.504501,0.66188 0.77903,1.10105 1.36857,2.33227 1.64153,3.65728 0.107709,0.68464 0.163419,0.88885 0.176649,1.59033 0.01961,1.04118 -0.16214,2.07803 -0.47711,3.06745 -0.10083,0.25904 -0.18855,0.52358 -0.30252,0.77712 -0.595319,1.32418 -1.53479,2.43979 -2.659019,3.34749 -0.644401,0.48266 -0.81734,0.64476 -1.526951,1.04281 -1.10681,0.62085 -2.31881,1.02911 -3.552509,1.30939 -0.792311,0.14913 -1.053481,0.2194 -1.854721,0.28704 -1.20198,0.10146 -2.41193,0.0225 -3.587329,-0.25164 -0.742181,-0.21553 -0.990591,-0.25282 -1.6891,-0.59578 -1.037701,-0.50948 -1.910031,-1.26672 -2.603571,-2.18685 -0.15338,-0.2294 -0.31826,-0.45152 -0.46016,-0.68819 -0.68644,-1.14491 -1.08653,-2.43806 -1.29433,-3.75003 -0.0317,-0.26869 -0.0728,-0.53645 -0.095,-0.80609 -0.0994,-1.20948 -0.0178,-2.43181 0.20294,-3.62327 0.26363,-1.19263 0.61393,-2.36466 1.27809,-3.40355 0.46028,-0.72321 0.97701,-1.40839 1.62392,-1.97746 1.77531,-1.52169 3.92731,0.98897 2.152,2.51067 z"
       inkscape:connector-curvature="0" />
    <path
       style="opacity:1;fill:#ffffff;fill-opacity:1;stroke:none;stroke-width:1;stroke-linecap:round;stroke-linejoin:round;stroke-miterlimit:4;stroke-dasharray:none;stroke-opacity:1"
       id="path1676-6"
       d="m 99.554471,174.11742 c -1.365268,-0.10633 -2.733,-0.14398 -4.10189,-0.15866 -2.536769,-0.0433 -5.07381,-0.0114 -7.610699,-0.0163 -3.162371,-0.0243 -6.324851,-0.009 -9.487221,-0.0242 -2.43838,-0.0429 -4.87702,-0.0624 -7.31555,-0.0937 -2.33802,-0.0301 -2.29547,-3.33656 0.0425,-3.30647 v 0 c 2.42981,0.0313 4.8597,0.0505 7.28934,0.0935 3.15908,0.0157 6.31827,-2.3e-4 9.47734,0.0242 2.546781,0.005 5.093711,-0.0272 7.640361,0.0164 1.4251,0.0159 2.849109,0.0548 4.270498,0.16481 2.33373,0.14476 2.12901,3.44517 -0.204729,3.30041 z"
       inkscape:connector-curvature="0" />
    <path
       style="fill:none;stroke:#ffffff;stroke-width:0.26499999;stroke-linecap:round;stroke-linejoin:miter;stroke-miterlimit:4;stroke-dasharray:none;stroke-opacity:1;marker-end:url(#Arrow2Mend-7)"
       d="m 92.387742,168.8424 7.618848,0.1645"
       id="path1680"
       inkscape:connector-curvature="0"
       sodipodi:nodetypes="cc" />
    <text
       xml:space="preserve"
       style="font-style:normal;font-weight:normal;font-size:3.06752563px;line-height:1.25;font-family:sans-serif;letter-spacing:0px;word-spacing:0px;fill:#ffffff;fill-opacity:1;stroke:none;stroke-width:0.07668814;stroke-opacity:1"
       x="101.42679"
       y="170.0549"
       id="text1950"><tspan
         sodipodi:role="line"
         id="tspan1948"
         x="101.42679"
         y="170.0549"
         style="fill:#ffffff;fill-opacity:1;stroke:none;stroke-width:0.07668814;stroke-opacity:1">1</tspan></text>
    <path
       style="fill:none;stroke:#ffffff;stroke-width:0.26499999;stroke-linecap:round;stroke-linejoin:miter;stroke-miterlimit:4;stroke-dasharray:none;stroke-opacity:1;marker-end:url(#Arrow2Mend-4-4)"
       d="m 81.583771,148.97868 c -2.89675,1.20364 -4.12034,2.98808 -5.37913,4.3135"
       id="path1680-8"
       inkscape:connector-curvature="0"
       sodipodi:nodetypes="cc" />
    <text
       xml:space="preserve"
       style="font-style:normal;font-weight:normal;font-size:3.06752563px;line-height:1.25;font-family:sans-serif;letter-spacing:0px;word-spacing:0px;fill:#ffffff;fill-opacity:1;stroke:none;stroke-width:0.07668814;stroke-opacity:1"
       x="77.798592"
       y="149.97284"
       id="text1950-6"><tspan
         sodipodi:role="line"
         id="tspan1948-6"
         x="77.798592"
         y="149.97284"
         style="fill:#ffffff;fill-opacity:1;stroke:none;stroke-width:0.07668814;stroke-opacity:1">1</tspan></text>
  </g>
</svg>
