<?xml version="1.0" encoding="UTF-8" standalone="no"?>
<!-- Created with Inkscape (http://www.inkscape.org/) -->

<svg
   xmlns:dc="http://purl.org/dc/elements/1.1/"
   xmlns:cc="http://creativecommons.org/ns#"
   xmlns:rdf="http://www.w3.org/1999/02/22-rdf-syntax-ns#"
   xmlns:svg="http://www.w3.org/2000/svg"
   xmlns="http://www.w3.org/2000/svg"
   xmlns:sodipodi="http://sodipodi.sourceforge.net/DTD/sodipodi-0.dtd"
   xmlns:inkscape="http://www.inkscape.org/namespaces/inkscape"
   width="73.194809mm"
   height="54.873173mm"
   viewBox="0 0 73.194809 54.873173"
   version="1.1"
   id="svg2304"
   inkscape:version="0.92.2 (5c3e80d, 2017-08-06)"
   sodipodi:docname="formed_syllables.svg">
  <defs
     id="defs2298" />
  <sodipodi:namedview
     id="base"
     pagecolor="#ffffff"
     bordercolor="#666666"
     borderopacity="1.0"
     inkscape:pageopacity="0.0"
     inkscape:pageshadow="2"
     inkscape:zoom="0.35"
     inkscape:cx="-323.10769"
     inkscape:cy="43.697353"
     inkscape:document-units="mm"
     inkscape:current-layer="layer1"
     showgrid="false"
     fit-margin-top="0"
     fit-margin-left="0"
     fit-margin-right="0"
     fit-margin-bottom="0"
     inkscape:window-width="1920"
     inkscape:window-height="1000"
     inkscape:window-x="-11"
     inkscape:window-y="-11"
     inkscape:window-maximized="1" />
  <metadata
     id="metadata2301">
    <rdf:RDF>
      <cc:Work
         rdf:about="">
        <dc:format>image/svg+xml</dc:format>
        <dc:type
           rdf:resource="http://purl.org/dc/dcmitype/StillImage" />
        <dc:title></dc:title>
      </cc:Work>
    </rdf:RDF>
  </metadata>
  <g
     inkscape:label="Layer 1"
     inkscape:groupmode="layer"
     id="layer1"
     transform="translate(-44.289504,-105.52175)">
    <path
       style="opacity:1;fill:#ffffff;fill-opacity:1;stroke:none;stroke-width:0.79883528;stroke-linecap:round;stroke-linejoin:round;stroke-miterlimit:4;stroke-dasharray:none;stroke-opacity:1"
       id="path28"
       d="m 55.262561,108.56825 c 0.0114,0.8115 -0.0242,1.6243 0.0187,2.43497 0.009,0.12539 0.0173,0.25079 0.0263,0.37615 0.0226,0.3146 0.0332,0.43905 0.0548,0.74951 0.008,0.10982 0.0114,0.21991 0.022,0.32947 0.0181,0.18745 1.4e-4,0.19886 0.0478,0.11936 0.0282,0.0679 0.0565,0.13573 0.0848,0.20361 1.00216,2.51599 -2.55599,3.93326 -3.55815,1.41727 v 0 c -0.0543,-0.13939 -0.1086,-0.27878 -0.1629,-0.41817 -0.0612,-0.22069 -0.13463,-0.43834 -0.1835,-0.66208 -0.13769,-0.63045 -0.0615,-1.29963 -0.15698,-1.93532 -0.0375,-0.87114 -0.0195,-1.74295 -0.0229,-2.61477 0,-2.70824 3.830021,-2.70824 3.830021,0 z"
       inkscape:connector-curvature="0" />
    <path
       style="opacity:1;fill:#ffffff;fill-opacity:1;stroke:none;stroke-width:0.79883528;stroke-linecap:round;stroke-linejoin:round;stroke-miterlimit:4;stroke-dasharray:none;stroke-opacity:1"
       id="path30"
       d="m 47.302518,116.13892 c 1.323307,-0.72369 2.710886,-1.32338 4.071923,-1.97213 1.59878,-0.77046 3.17027,-1.59352 4.8049,-2.28643 1.03802,-0.38511 2.05157,-0.83459 3.09298,-1.20993 0.33111,-0.0968 0.65666,-0.20973 0.98076,-0.32733 2.54792,-0.91796 3.84612,2.68534 1.2982,3.60331 v 0 c -0.32716,0.11724 -0.65395,0.23659 -0.98892,0.33025 -0.97549,0.34528 -1.91841,0.77914 -2.89169,1.13145 -1.58335,0.66724 -3.09828,1.47722 -4.64865,2.2162 -1.33938,0.63807 -2.705055,1.22708 -4.006664,1.94029 -2.422318,1.21116 -4.135157,-2.21452 -1.712839,-3.42568 z"
       inkscape:connector-curvature="0" />
    <path
       style="opacity:1;fill:#ffffff;fill-opacity:1;stroke:none;stroke-width:0.79883528;stroke-linecap:round;stroke-linejoin:round;stroke-miterlimit:4;stroke-dasharray:none;stroke-opacity:1"
       id="path36"
       d="m 54.824791,121.13345 c -0.17397,0.90484 -0.38336,1.79819 -0.50543,2.71249 -0.0165,0.66824 -0.30737,1.52979 0.11268,2.13007 0.23389,0.0206 0.48701,-0.0118 0.72913,-0.0556 0.81616,-0.1445 1.24851,-0.58199 1.73797,-1.20724 0.49059,-0.79953 0.80999,-1.67728 0.93402,-2.60522 0.0191,-0.22326 0.001,-0.66 -0.18762,-0.84055 -0.0723,-0.0691 -0.007,0.0891 0.0225,0.17244 0.002,0.0192 0.0238,0.049 0.007,0.0578 -0.0329,0.0166 -0.0741,-0.0116 -0.11053,-0.005 -0.091,0.0147 -0.17603,0.055 -0.264,0.0828 -0.2649,0.0835 -0.3847,0.14725 -0.65624,0.26695 -0.75745,0.36475 -1.43055,0.88232 -2.11628,1.362 -2.22143,1.54911 -4.412222,-1.59248 -2.19079,-3.14159 v 0 c 0.92666,-0.64445 1.84203,-1.32692 2.88522,-1.77674 0.27946,-0.10646 0.55234,-0.23208 0.83838,-0.31932 1.43901,-0.43894 2.75819,-0.3182 4.02604,0.50324 0.21256,0.20044 0.45032,0.37715 0.63768,0.60132 0.83885,1.00372 1.01051,2.37016 0.89371,3.62461 -0.0416,0.24956 -0.072,0.50126 -0.12485,0.74867 -0.28544,1.33634 -0.86716,2.59562 -1.64574,3.71371 -0.19035,0.22299 -0.36731,0.45817 -0.57106,0.669 -1.05487,1.09155 -2.40023,1.74097 -3.90498,1.91751 -0.80734,0.0179 -1.02356,0.0793 -1.81548,-0.13024 -0.82737,-0.21892 -1.59844,-0.70029 -2.14586,-1.35963 -0.18841,-0.22694 -0.32341,-0.49335 -0.48512,-0.74001 -0.1021,-0.25794 -0.22494,-0.50859 -0.3063,-0.7738 -0.339893,-1.10791 -0.217126,-2.2807 -0.0942,-3.41056 0.12696,-0.92206 0.31169,-1.82977 0.50907,-2.7386 0.383,-2.68101 4.17453,-2.13937 3.79153,0.54165 z"
       inkscape:connector-curvature="0" />
    <path
       style="opacity:1;fill:#ffffff;fill-opacity:1;stroke:none;stroke-width:0.79883528;stroke-linecap:round;stroke-linejoin:round;stroke-miterlimit:4;stroke-dasharray:none;stroke-opacity:1"
       id="path38"
       d="m 69.726631,107.79044 c -0.0791,1.21689 -0.18252,2.43204 -0.27939,3.64766 -0.13622,1.8139 -0.1711,3.63313 -0.19503,5.4513 -0.0164,1.63676 -0.0154,3.27362 -0.0148,4.91043 8.73e-4,1.17456 0.002,2.34914 0.002,3.52372 -0.0168,0.58748 0.0155,1.17298 0.0472,1.75922 0.14554,2.70432 -3.67895,2.91015 -3.82449,0.20583 v 0 c -0.0351,-0.65413 -0.0684,-1.30805 -0.0527,-1.96344 -4.24e-4,-1.17463 -10e-4,-2.34926 -0.002,-3.5239 -6.35e-4,-1.65415 -0.002,-3.30835 0.0151,-4.96244 0.0252,-1.90287 0.0631,-3.80678 0.20681,-5.70507 0.10149,-1.27263 0.20389,-2.5452 0.29685,-3.81837 0.33591,-2.68732 4.13636,-2.21227 3.80044,0.47506 z"
       inkscape:connector-curvature="0" />
    <path
       style="opacity:1;fill:#ffffff;fill-opacity:1;stroke:none;stroke-width:0.79883528;stroke-linecap:round;stroke-linejoin:round;stroke-miterlimit:4;stroke-dasharray:none;stroke-opacity:1"
       id="path46"
       d="m 69.908011,114.34999 c 0.71596,-0.007 1.432349,0.0166 2.147611,-0.019 0.127388,-0.0139 0.254788,-0.0277 0.38218,-0.0417 2.694458,-0.27288 3.08034,3.53766 0.385878,3.81052 v 0 c -0.19894,0.0191 -0.39788,0.0383 -0.59681,0.0573 -0.772699,0.0319 -1.545569,0.0229 -2.318859,0.0228 -2.70824,0 -2.70824,-3.83003 0,-3.83003 z"
       inkscape:connector-curvature="0" />
    <path
       style="opacity:1;fill:#ffffff;fill-opacity:1;stroke:none;stroke-width:0.79883528;stroke-linecap:round;stroke-linejoin:round;stroke-miterlimit:4;stroke-dasharray:none;stroke-opacity:1"
       id="path52"
       d="m 55.057031,133.73987 c 0.0347,0.61325 0.0609,1.22659 0.37774,1.76683 0.38389,0.4819 0.97864,0.54816 1.54947,0.64812 1.6029,0.18626 3.19547,-0.11178 4.75939,-0.43466 2.03791,-0.463 4.01138,-1.16916 5.97425,-1.87803 0.90828,-0.32836 1.77892,-0.74683 2.65079,-1.1592 2.44912,-1.15601 4.083959,2.30757 1.634841,3.46357 v 0 c -0.9818,0.46258 -1.962931,0.93016 -2.985501,1.29823 -2.13658,0.77058 -4.28568,1.53405 -6.50623,2.02763 -2.06715,0.4201 -4.17277,0.76313 -6.28197,0.43744 -0.30367,-0.0652 -0.61191,-0.11201 -0.91101,-0.19568 -1.4695,-0.41127 -2.5681,-1.22979 -3.33615,-2.54853 -0.10719,-0.23814 -0.22958,-0.47 -0.32158,-0.71443 -0.32626,-0.86676 -0.39091,-1.79579 -0.43407,-2.71129 0,-2.70824 3.83003,-2.70824 3.83003,0 z"
       inkscape:connector-curvature="0" />
    <path
       style="opacity:1;fill:#ffffff;fill-opacity:1;stroke:none;stroke-width:0.79883528;stroke-linecap:round;stroke-linejoin:round;stroke-miterlimit:4;stroke-dasharray:none;stroke-opacity:1"
       id="path54"
       d="m 90.74745,107.58164 c 1.367451,-0.19493 2.728341,-0.43162 4.093392,-0.64174 1.471258,-0.22199 2.955769,-0.32523 4.441479,-0.37977 0.867109,-0.0287 1.755739,-0.0758 2.576639,0.26397 0.19651,0.0814 0.37466,0.20139 0.56201,0.30209 0.89216,0.63247 1.35819,1.56234 1.73116,2.55827 0.34561,0.95429 0.43863,1.96517 0.49337,2.97061 0.0365,0.97181 0.0285,1.94461 0.0275,2.9169 -0.003,2.70824 -3.83319,2.70375 -3.83002,-0.005 v 0 c 7.9e-4,-0.90331 0.008,-1.80705 -0.0221,-2.71 -0.0316,-0.61941 -0.0632,-1.24821 -0.25985,-1.84165 -0.0513,-0.1404 -0.0887,-0.28612 -0.14843,-0.42313 -0.0261,-0.06 -0.061,-0.11575 -0.0915,-0.17362 -0.003,-0.0164 -0.007,-0.0336 -0.0128,-0.0493 -0.008,-0.0185 -0.0505,-0.0551 -0.0306,-0.0522 0.0484,0.007 0.087,0.0447 0.13061,0.0672 0.16319,0.0429 0.24275,0.0683 0.22452,0.029 -0.0163,-0.0351 -0.0742,-0.0235 -0.11271,-0.0282 -0.36458,-0.0452 -0.733267,0.009 -1.098559,0.002 -1.33749,0.0482 -2.674038,0.13901 -3.99868,0.33781 -1.308549,0.20091 -2.612249,0.43345 -3.92426,0.61185 -2.655639,0.53112 -3.40677,-3.22452 -0.75112,-3.75566 z"
       inkscape:connector-curvature="0" />
    <path
       style="opacity:1;fill:#ffffff;fill-opacity:1;stroke:none;stroke-width:0.79883528;stroke-linecap:round;stroke-linejoin:round;stroke-miterlimit:4;stroke-dasharray:none;stroke-opacity:1"
       id="path62"
       d="m 89.499701,119.82476 c 1.591379,-0.18677 3.184991,-0.35231 4.77569,-0.54551 2.158701,-0.27264 4.320071,-0.52007 6.474139,-0.82839 1.71488,-0.24424 3.43032,-0.47574 5.1572,-0.61514 0.64461,-0.0914 1.30482,-0.0218 1.95016,-0.0866 0.0255,-0.002 0.0435,-0.0287 0.068,-0.0363 0.0874,-0.0268 0.17739,-0.0443 0.2661,-0.0663 2.63441,-0.62799 3.52253,3.09763 0.88811,3.72563 v 0 c -0.49685,0.11537 -0.5783,0.14807 -1.1358,0.20603 -0.57205,0.0594 -1.15849,-0.007 -1.73,0.0753 -1.64819,0.13158 -3.28468,0.35752 -4.92147,0.58885 -2.180986,0.31172 -4.369136,0.5636 -6.554837,0.83905 -1.628929,0.19769 -3.260731,0.3681 -4.89054,0.55771 -2.69711,0.24518 -3.04387,-3.5691 -0.34675,-3.8143 z"
       inkscape:connector-curvature="0" />
    <path
       style="opacity:1;fill:#ffffff;fill-opacity:1;stroke:none;stroke-width:0.79883528;stroke-linecap:round;stroke-linejoin:round;stroke-miterlimit:4;stroke-dasharray:none;stroke-opacity:1"
       id="path130"
       d="m 91.258871,125.02215 c 0.57037,-0.037 1.140669,-0.0755 1.7107,-0.11768 1.315871,-0.10692 2.631501,-0.21655 3.947491,-0.322 1.18972,-0.0837 2.38224,-0.16243 3.575668,-0.14546 0.21996,0.003 0.43979,0.0129 0.65969,0.0194 0.81304,0.0386 1.62785,0.1324 2.40612,0.38124 0.47834,0.15293 0.56194,0.21265 1.00933,0.42919 0.58303,0.32193 1.08968,0.76026 1.48615,1.29589 0.21238,0.28695 0.26553,0.40419 0.4331,0.70614 0.28625,0.53094 0.43672,1.11528 0.5689,1.69931 0.0846,0.37272 0.13008,0.75213 0.15162,1.13325 0.008,0.17062 0.009,0.34145 0.008,0.51222 -0.012,0.11734 0.051,0.28154 -0.0185,-0.17209 -0.0116,-0.0751 -0.0372,-0.14724 -0.0558,-0.22086 0.79913,2.18142 -2.28588,3.31159 -3.08502,1.13016 v 0 c -0.0302,-0.1053 -0.0704,-0.20815 -0.0906,-0.31577 -0.0291,-0.1551 -0.0383,-0.29289 -0.0354,-0.44285 5.3e-4,-0.10531 8e-4,-0.21069 -0.003,-0.31595 -0.009,-0.19693 -0.0326,-0.39281 -0.0758,-0.58542 -0.0655,-0.29177 -0.12297,-0.59108 -0.25509,-0.86143 -0.018,-0.0361 -0.0903,-0.18399 -0.11684,-0.22607 -0.10067,-0.15938 -0.22622,-0.30071 -0.38687,-0.40109 -0.0626,-0.0346 -0.12337,-0.0732 -0.18814,-0.10368 -0.577,-0.27224 -1.22514,-0.31857 -1.85208,-0.3582 -0.52462,-0.0168 -0.62383,-0.0257 -1.157816,-0.0187 -0.906118,0.0117 -1.81107,0.0718 -2.714678,0.13582 -1.322731,0.106 -2.645111,0.21627 -3.967731,0.32357 -0.650481,0.048 -1.301261,0.0977 -1.952879,0.12661 -2.3232,0 -2.3232,-3.28551 0,-3.28551 z"
       inkscape:connector-curvature="0" />
    <path
       style="opacity:1;fill:#ffffff;fill-opacity:1;stroke:none;stroke-width:0.79883528;stroke-linecap:round;stroke-linejoin:round;stroke-miterlimit:4;stroke-dasharray:none;stroke-opacity:1"
       id="path137"
       d="m 92.56832,130.45888 c 0.432181,-0.009 0.86206,-0.0547 1.291461,-0.10184 0.87359,-0.10831 1.746649,-0.22119 2.62229,-0.3116 0.958789,-0.0924 1.91915,-0.16618 2.880019,-0.2328 0.80926,-0.0564 1.6175,-0.12601 2.42669,-0.18349 0.59516,-0.042 1.18914,-0.0985 1.7842,-0.14188 0.39656,-0.0276 0.79395,-0.0395 1.19136,-0.0448 -0.0551,0.0231 0.26773,-0.0157 0.19283,-0.008 -0.0415,0.003 -0.0832,0.008 -0.12471,0.0124 -0.009,7.9e-4 -0.0375,0.008 -0.0284,0.005 0.0215,-0.007 0.0442,-0.0118 0.0661,-0.0177 0.20688,-0.0518 0.41636,-0.0909 0.62783,-0.11794 0.0977,-0.0116 0.19562,-0.0188 0.29372,-0.0238 0.0262,-0.001 0.10496,-0.007 0.079,-0.003 -0.46986,0.0735 -0.11224,-0.0281 -0.64038,0.16784 2.04324,-1.10566 3.60686,1.78392 1.56362,2.88957 v 0 c -0.1417,0.0564 -0.2784,0.12751 -0.42513,0.16917 -0.16608,0.0472 -0.31259,0.0515 -0.47399,0.0621 -0.0524,0.005 -0.11352,0.0202 -0.17347,0.0298 -0.29856,0.0801 -0.60323,0.12941 -0.91331,0.12062 -0.33257,0.003 -0.66513,0.0138 -0.99702,0.0365 -0.59691,0.0431 -1.1927,0.1008 -1.78976,0.14228 -0.81092,0.0575 -1.62083,0.12769 -2.431849,0.18384 -0.92456,0.064 -1.848649,0.13497 -2.771259,0.22345 -0.869,0.0889 -1.735069,0.20362 -2.60214,0.30946 -0.547669,0.0593 -1.096309,0.11363 -1.647619,0.12119 -2.323211,0 -2.323211,-3.28551 0,-3.28551 z"
       inkscape:connector-curvature="0" />
    <path
       style="opacity:1;fill:#ffffff;fill-opacity:1;stroke:none;stroke-width:0.79883528;stroke-linecap:round;stroke-linejoin:round;stroke-miterlimit:4;stroke-dasharray:none;stroke-opacity:1"
       id="path144"
       d="m 93.538751,132.91194 c 0.005,-0.0116 0.0158,-0.0469 0.01521,-0.0345 -0.0011,0.034 -0.01281,0.0669 -0.01871,0.10044 -0.009,0.0539 -0.01881,0.10763 -0.0276,0.1616 -0.0376,0.23051 -0.0696,0.46128 -0.0976,0.69313 -0.0332,0.40623 -0.0818,0.81966 -0.0369,1.22733 0.005,0.0452 0.01691,0.0893 0.0254,0.13408 0.0146,0.053 0.0653,0.26075 0.13843,0.2791 0.006,0.001 0.007,-0.0118 0.01299,-0.0126 0.0104,-0.001 0.02069,0.005 0.031,0.007 0.008,-0.001 0.01691,-0.007 0.02519,-0.005 0.028,0.007 0.0537,0.0198 0.081,0.0284 0.0832,0.0266 0.202559,0.0592 0.283437,0.0771 0.175422,0.0387 0.233601,0.0428 0.4162,0.0678 0.655093,0.067 1.314871,0.064 1.972623,0.0672 0.833249,0.0104 1.66606,-0.0253 2.496738,-0.0881 0.810421,-0.0694 1.615291,-0.18753 2.418551,-0.31317 0.6963,-0.10566 1.3884,-0.2364 2.0803,-0.36725 0.5354,-0.10104 1.07179,-0.19622 1.60896,-0.28729 0.31819,-0.0574 0.63667,-0.11512 0.95295,-0.18245 0.25951,-0.0658 0.52261,-0.11467 0.78806,-0.14855 0.10311,-0.008 0.20676,-0.0244 0.31046,-0.0234 0.028,2.1e-4 -0.0563,5.3e-4 -0.0838,0.005 -0.38436,0.0617 -0.27164,0.064 -0.75701,0.31177 -0.0309,0.0265 -0.0617,0.0531 -0.0927,0.0797 1.65254,-1.63293 3.96183,0.70409 2.30931,2.33702 v 0 c -0.0522,0.0476 -0.10461,0.0954 -0.15684,0.143 -0.19566,0.10647 -0.38248,0.23109 -0.58695,0.31942 -0.16859,0.0728 -0.36262,0.0746 -0.54263,0.0887 -0.17342,0.018 -0.34203,0.0651 -0.51182,0.10264 -0.35878,0.0748 -0.71911,0.14287 -1.08001,0.20657 -0.5166,0.0875 -1.03247,0.17914 -1.54737,0.27624 -0.7263,0.13736 -1.45291,0.27408 -2.18382,0.38512 -0.89023,0.13889 -1.78241,0.26854 -2.680718,0.34342 -0.917641,0.0678 -1.837412,0.10854 -2.757832,0.0972 -0.81616,-0.003 -1.63526,-0.003 -2.446549,-0.10393 -0.13838,-0.0218 -0.277511,-0.0394 -0.415142,-0.0655 -0.74526,-0.14187 -1.461098,-0.40644 -2.062789,-0.87834 -0.313108,-0.29163 -0.39768,-0.34063 -0.647981,-0.69592 -0.334039,-0.47414 -0.52324,-1.02854 -0.625758,-1.59472 -0.0177,-0.14196 -0.0408,-0.28336 -0.0532,-0.42587 -0.0521,-0.59706 1.49e-4,-1.19922 0.0572,-1.79351 0.0651,-0.52315 0.132709,-1.04952 0.272917,-1.55876 0.734672,-2.20399 3.851572,-1.16501 3.116922,1.03897 z"
       inkscape:connector-curvature="0" />
    <path
       style="opacity:1;fill:#ffffff;fill-opacity:1;stroke:none;stroke-width:0.79883528;stroke-linecap:round;stroke-linejoin:round;stroke-miterlimit:4;stroke-dasharray:none;stroke-opacity:1"
       id="path158"
       d="m 47.389844,143.89379 c 0,0.72941 0,1.45883 0,2.18824 0,1.00571 0,2.01141 0,3.01712 0,0.75202 0,1.50403 0,2.25606 0,0.43863 0,0.87727 0,1.31591 0,0.19278 0,0.38555 0,0.57832 0,0.0407 0.01087,0.16109 0,0.12192 -0.01179,-0.0427 -0.002,-0.0884 -0.003,-0.13263 -0.118135,-0.52161 -0.15572,-0.88499 -0.938683,-1.16373 -0.424125,-0.15098 -0.910058,0.007 -1.344889,0.124 -0.212737,0.057 -0.499517,0.55526 -0.362104,0.28492 0.191772,-0.41402 0.366417,-0.83498 0.557115,-1.25021 0.313611,-0.73182 0.781615,-1.36603 1.322228,-1.94357 0.574872,-0.56684 1.246878,-0.96352 1.993504,-1.25599 0.516719,-0.16756 1.053878,-0.26028 1.598244,-0.21562 0.341742,0.0281 0.452602,0.0699 0.777642,0.15218 0.71857,0.23914 1.30747,0.71344 1.71507,1.34983 0.0771,0.12032 0.13945,0.24941 0.20918,0.37411 0.30639,0.64078 0.40097,1.34098 0.44336,2.0415 0.0169,0.3858 0.013,0.77208 0.0102,1.15812 -6.35e-4,0.0936 -10e-4,0.16626 -0.002,0.25939 -2.1e-4,0.0394 0.007,0.15719 -6.35e-4,0.11838 -0.12542,-0.67522 0.0483,-0.24712 -0.24811,-0.81085 1.395399,1.68831 -0.99224,3.66173 -2.38765,1.9734 v 0 c -0.107042,-0.17235 -0.247189,-0.3281 -0.321113,-0.51703 -0.143211,-0.366 -0.146648,-0.68061 -0.138119,-1.04586 0.0023,-0.31919 0.0058,-0.63855 -0.0052,-0.95764 -0.01372,-0.26035 -0.03731,-0.51951 -0.09111,-0.77502 -0.01444,-0.0425 -0.05875,-0.11224 -0.0638,-0.15588 -0.0025,-0.022 0.06066,0.003 0.06051,-0.0252 -0.177025,-0.0677 -0.276505,-0.0828 -0.474538,-0.0214 -0.316301,0.0978 -0.5942,0.2904 -0.845051,0.50292 -0.321284,0.30827 -0.558356,0.68238 -0.738563,1.08858 -0.212639,0.46169 -0.401877,0.93258 -0.625253,1.3891 -0.154345,0.29217 -0.390696,0.78143 -0.712196,0.88954 -0.45008,0.15132 -0.963194,0.31624 -1.4145,0.16861 -0.832251,-0.27222 -0.88656,-0.71466 -1.038882,-1.28982 -0.03166,-0.33807 -0.03586,-0.67482 -0.02943,-1.01443 0,-0.43865 0,-0.87729 0,-1.31592 0,-0.75203 0,-1.50404 0,-2.25606 0,-1.0057 0,-2.01141 0,-3.01711 0,-0.72941 0,-1.45884 0,-2.18825 0,-2.19034 3.097605,-2.19034 3.097605,0 z"
       inkscape:connector-curvature="0" />
    <path
       style="opacity:1;fill:#ffffff;fill-opacity:1;stroke:none;stroke-width:0.79883528;stroke-linecap:round;stroke-linejoin:round;stroke-miterlimit:4;stroke-dasharray:none;stroke-opacity:1"
       id="path160"
       d="m 59.465751,150.70894 c -0.27724,0.33925 -0.51317,0.7066 -0.69981,1.10261 -0.17895,0.36194 -0.2527,0.75212 -0.29342,1.1497 -10e-4,0.025 -0.0251,0.32966 0.005,0.36834 0.0202,0.026 0.006,-0.0663 4.24e-4,-0.0987 -0.0362,-0.21977 -0.0737,-0.22535 -0.20507,-0.44414 -0.0794,-0.0691 -0.15398,-0.17293 -0.25254,-0.22283 -0.0253,-0.0128 -0.0871,-0.003 -0.0793,-0.0306 0.009,-0.032 0.0643,-0.0173 0.096,-0.0275 0.0475,-0.0154 0.0944,-0.033 0.14158,-0.0495 0.4412,-0.15823 0.7971,-0.45428 1.11314,-0.79126 0.25545,-0.29087 0.37123,-0.64695 0.44466,-1.01862 0.0485,-0.30684 0.0532,-0.61813 0.0535,-0.92805 -0.0171,-0.93608 0.39987,-1.64429 1.52581,-1.8662 0.86801,-0.17109 1.19407,0.44461 1.58817,0.94463 0.29102,0.60312 0.46935,1.25186 0.64822,1.89481 0.087,0.30221 0.17327,0.6046 0.24308,0.91134 0.0408,0.17928 0.067,0.36045 0.12922,0.53374 -0.008,-0.11398 -0.0167,-0.0845 0.0746,0.0542 1.15737,1.85959 -1.47248,3.49635 -2.62985,1.63678 v 0 c -0.27422,-0.45076 -0.13479,-0.19641 -0.40272,-0.77147 -0.15081,-0.50709 -0.23661,-1.02998 -0.39862,-1.53446 -0.0501,-0.18004 -0.0953,-0.36147 -0.14951,-0.54031 -0.0656,-0.21645 -0.16101,-0.42971 -0.21723,-0.64866 -10e-4,-0.005 0.009,0.001 0.014,0.002 0.34674,0.36617 0.64205,0.78505 1.32527,0.60674 0.49182,-0.12835 0.87871,-0.52923 1.24188,-0.88487 0.10726,-0.10506 0.0768,-0.29038 0.10823,-0.43718 0.003,-0.0162 -0.004,-0.0658 -0.004,-0.0492 -0.002,0.0517 6.35e-4,0.10323 10e-4,0.1548 -0.002,0.53062 -0.0217,1.0631 -0.125421,1.58516 -0.225679,0.98403 -0.565109,1.76184 -1.25456,2.51943 -0.739989,0.74239 -1.47411,1.28348 -2.485989,1.60735 -0.15626,0.041 -0.31047,0.0909 -0.46878,0.12314 -0.675281,0.13753 -1.394011,0.0974 -2.005171,-0.24851 -0.163,-0.0922 -0.30479,-0.21782 -0.45719,-0.32671 -0.13793,-0.1726 -0.29805,-0.3296 -0.41379,-0.51779 -0.33887,-0.55099 -0.33187,-1.23118 -0.28233,-1.85005 0.0878,-0.75001 0.25269,-1.48619 0.58991,-2.16783 0.305961,-0.61258 0.661371,-1.19679 1.10209,-1.72328 1.40222,-1.68266 3.78186,0.30039 2.37964,1.98304 z"
       inkscape:connector-curvature="0" />
    <path
       style="opacity:1;fill:#ffffff;fill-opacity:1;stroke:none;stroke-width:0.79883528;stroke-linecap:round;stroke-linejoin:round;stroke-miterlimit:4;stroke-dasharray:none;stroke-opacity:1"
       id="path168"
       d="m 68.528091,149.43835 c 0,0.54271 0,1.08544 0,1.62816 0,0.55905 0,1.1181 0,1.67715 0.003,0.3566 0.005,0.71174 -0.0226,1.06723 -0.0257,0.11792 -0.0514,0.23583 -0.077,0.35375 -0.57802,2.11268 -3.56582,1.29524 -2.9878,-0.81745 v 0 c -0.005,0.0412 -0.009,0.0823 -0.014,0.12346 10e-4,0.0168 0.003,0.0672 0.004,0.0504 0.01,-0.19365 0,-0.39075 0,-0.58464 0,-0.0643 0,-0.12847 0,-0.19272 0,-0.55904 0,-1.11809 0,-1.67714 0,-0.54273 0,-1.08545 0,-1.62817 0,-2.19034 3.09761,-2.19034 3.09761,0 z"
       inkscape:connector-curvature="0" />
    <path
       style="opacity:1;fill:#ffffff;fill-opacity:1;stroke:none;stroke-width:0.79883528;stroke-linecap:round;stroke-linejoin:round;stroke-miterlimit:4;stroke-dasharray:none;stroke-opacity:1"
       id="path175"
       d="m 66.414471,148.17022 c 0.68002,-0.47888 1.45574,-0.77819 2.2485,-1.00914 0.75156,-0.17803 1.55692,-0.27096 2.32158,-0.1053 0.165841,0.036 0.325819,0.0949 0.488731,0.1424 0.728638,0.27856 1.364138,0.77566 1.78535,1.43755 0.0977,0.15345 0.17472,0.31906 0.26208,0.47861 0.367808,0.80907 0.447328,1.69139 0.487508,2.56716 0.0181,0.55059 0.01339,1.10154 0.01011,1.65231 0.006,0.24794 -0.01849,0.49499 -0.0418,0.74141 -0.21159,2.1801 -3.29471,1.88087 -3.083119,-0.29922 v 0 c 0.01551,-0.15342 0.037,-0.30585 0.0274,-0.46067 0.003,-0.49918 0.007,-0.99853 -0.007,-1.49757 -0.0182,-0.43766 -0.0372,-0.88082 -0.156811,-1.30488 -0.0218,-0.0877 -0.0599,-0.1687 -0.11755,-0.23987 -0.0203,-0.0251 -0.0511,-0.0416 -0.0672,-0.0695 -0.004,-0.007 0.024,-0.0104 0.0181,-0.0154 -0.0264,-0.0231 -0.0618,-0.0334 -0.0926,-0.05 -0.11091,-0.14715 -0.82804,-0.0362 -0.99062,0.003 -0.48602,0.1305 -0.96162,0.31177 -1.3741,0.60603 -1.82247,1.21499 -3.540711,-1.36238 -1.71824,-2.57735 z"
       inkscape:connector-curvature="0" />
    <path
       style="opacity:1;fill:#ffffff;fill-opacity:1;stroke:none;stroke-width:0.66438383;stroke-linecap:round;stroke-linejoin:round;stroke-miterlimit:4;stroke-dasharray:none;stroke-opacity:1"
       id="path189"
       d="m 90.52716,149.67879 c -0.430649,0.1522 -0.80859,0.40777 -1.149879,0.70927 -0.357179,0.3479 -0.620051,0.7305 -0.797319,1.19729 -0.0902,0.32416 -0.177221,0.67956 -0.086,1.0129 0.01199,0.0346 0.0172,0.0725 0.0361,0.10369 0.005,0.007 0.0104,-0.0116 0.01699,-0.0161 0.006,-0.003 0.01849,-0.002 0.01691,-0.009 -0.008,-0.0295 -0.0674,-0.12207 -0.0621,-0.13082 0.007,-0.0125 0.0288,-0.002 0.0432,-0.002 0.277972,0.0476 0.552742,-0.0116 0.811951,-0.11144 0.209381,-0.13201 0.44908,-0.2646 0.54033,-0.51052 0.0628,-0.23098 0.0808,-0.47648 0.0724,-0.71528 -0.005,-0.14488 0.009,-0.30968 -0.12686,-0.39299 -0.0343,-0.0361 -0.0687,-0.0722 -0.10311,-0.10831 -1.207,-1.36621 0.701569,-3.09417 1.908561,-1.72798 v 0 c 0.0844,0.0983 0.168759,0.19661 0.25314,0.2949 0.083,0.1226 0.17326,0.24048 0.248999,0.36782 0.27781,0.46699 0.37075,1.01946 0.37972,1.55616 -0.006,0.72212 -0.0946,1.44163 -0.451041,2.08218 -0.0791,0.12195 -0.15077,0.24916 -0.237278,0.36584 -0.426172,0.5749 -1.032232,0.9731 -1.678892,1.24842 -0.133268,0.0423 -0.264499,0.0918 -0.399788,0.12691 -0.66874,0.17349 -1.371841,0.16782 -2.03635,-0.0195 -0.35515,-0.13594 -0.53308,-0.17541 -0.844971,-0.41945 -0.500002,-0.39125 -0.7893,-0.94485 -0.914659,-1.56258 -0.01961,-0.14392 -0.0474,-0.28696 -0.0591,-0.4318 -0.0543,-0.67691 0.0874,-1.3565 0.305998,-1.99205 0.057,-0.13486 0.10831,-0.27236 0.171051,-0.40456 0.32322,-0.68067 0.799269,-1.26817 1.340879,-1.78243 0.118092,-0.0991 0.23246,-0.20279 0.354272,-0.29706 0.453858,-0.35124 0.964218,-0.62886 1.495899,-0.83782 1.681051,-0.68071 2.632011,1.72597 0.950941,2.40668 z"
       inkscape:connector-curvature="0" />
    <path
       style="opacity:1;fill:#ffffff;fill-opacity:1;stroke:none;stroke-width:0.66438383;stroke-linecap:round;stroke-linejoin:round;stroke-miterlimit:4;stroke-dasharray:none;stroke-opacity:1"
       id="path198"
       d="m 88.601142,157.73588 c 0.396528,0.0823 0.794459,0.0873 1.194998,0.0436 0.419262,-0.0668 0.774571,-0.28172 1.100141,-0.54627 0.314941,-0.31733 0.571579,-0.69671 0.736459,-1.11457 0.142592,-0.47531 0.15734,-0.9764 0.174271,-1.46917 0.02011,-0.54477 0.01871,-1.08665 -0.0611,-1.62616 -0.0764,-0.48003 -0.27549,-0.92875 -0.47964,-1.36527 -0.16152,-0.37504 -0.357759,-0.73177 -0.554029,-1.08866 -0.177332,-0.40709 -0.100682,-0.21409 -0.234411,-0.57712 -0.626901,-1.7195 1.77523,-2.61698 2.402139,-0.89749 v 0 c 0.0645,0.17996 0.0461,0.10681 0.07,0.21494 0.22457,0.40948 0.448051,0.81947 0.63486,1.24864 0.308009,0.67052 0.590989,1.36095 0.69574,2.09818 0.0948,0.69284 0.11611,1.38784 0.0851,2.08684 -0.0303,0.8194 -0.0874,1.64637 -0.388692,2.41751 -0.0616,0.13682 -0.117549,0.27648 -0.185049,0.41046 -0.330211,0.6554 -0.79637,1.24091 -1.34279,1.72273 -0.120589,0.0908 -0.23727,0.18728 -0.36178,0.27257 -0.614649,0.42092 -1.313199,0.69323 -2.04864,0.79324 -0.649531,0.0579 -1.298559,0.0528 -1.93992,-0.0822 -1.775409,-0.35945 -1.273249,-2.90119 0.502161,-2.54173 z"
       inkscape:connector-curvature="0" />
    <path
       style="opacity:1;fill:#ffffff;fill-opacity:1;stroke:none;stroke-width:0.60323739;stroke-linecap:round;stroke-linejoin:round;stroke-miterlimit:4;stroke-dasharray:none;stroke-opacity:1"
       id="path213"
       d="m 97.780622,149.9694 c 0.465508,-0.24941 0.936649,-0.4905 1.40933,-0.72678 0.476639,-0.23896 0.937028,-0.50754 1.416848,-0.74038 0.2147,-0.0972 0.3803,-0.25148 0.58275,-0.37644 0.42191,-0.19644 0.14934,-0.0812 0.079,-0.029 -0.0581,0.0431 -0.11432,0.0901 -0.16308,0.14384 -0.10472,0.11559 -0.117,0.16401 -0.17501,0.29227 -0.061,0.12922 -0.0178,0.28904 0.0472,0.46785 0.0104,0.0198 0.048,0.0733 0.0306,0.0594 -0.0674,-0.0536 -0.11224,-0.18174 -0.1822,-0.25579 -0.0565,-0.0623 -0.10346,-0.13246 -0.15642,-0.19765 -0.0198,-0.0242 0.0409,0.0476 0.0573,0.0744 0.003,0.007 -0.0133,-0.008 -0.0195,-0.0126 -0.13088,-0.0988 -0.0104,-0.0139 -0.12289,-0.0918 0.0507,0.0232 -0.0635,-0.0348 -0.0505,-0.0217 0.0104,0.0115 0.0473,0.0335 0.0319,0.0339 -0.0667,7.9e-4 -0.13317,-0.009 -0.19975,-0.0144 -0.30711,-0.0299 -0.602058,0.0416 -0.889096,0.14392 -0.401302,0.12684 -0.73709,0.37833 -1.050812,0.65316 -0.259818,0.2659 -0.516429,0.55079 -0.688009,0.88459 -0.156001,0.29908 -0.286909,0.60664 -0.352769,0.93855 -0.02281,0.23017 -0.078,0.47115 -0.0477,0.70319 0.0245,0.0238 0.0267,0.062 0.0447,0.0891 0.007,0.0104 0.007,-0.0311 0.02011,-0.0335 0.19344,0.0607 0.395989,0.15552 0.58842,0.23342 0.268698,0.10623 0.559369,0.12916 0.84468,0.14745 0.33991,0.0157 0.68027,0.0149 1.020429,0.0143 0.230287,-0.0148 0.455497,-0.0672 0.682617,-0.10589 0.13536,-0.0362 0.24462,-0.012 0.32812,-0.0547 0.0251,-0.0127 -0.0551,0.0126 -0.0832,0.0126 1.4611,-0.76272 2.52662,1.32906 1.06551,2.09176 v 0 c -0.29557,0.14355 -0.59873,0.24669 -0.9275,0.27168 -0.35203,0.0591 -0.70246,0.13608 -1.061225,0.13802 -0.394431,5.3e-4 -0.789112,7.9e-4 -1.18314,-0.0198 -0.527172,-0.0383 -1.055852,-0.10762 -1.54954,-0.31025 -0.50137,-0.20297 -1.011312,-0.39902 -1.404321,-0.79092 -0.0704,-0.0796 -0.14682,-0.15429 -0.211519,-0.23879 -0.293301,-0.38289 -0.44785,-0.84281 -0.495901,-1.32095 -0.01601,-0.44646 0.0131,-0.89326 0.0987,-1.33235 0.126589,-0.55951 0.325408,-1.09226 0.601609,-1.59493 0.0588,-0.10149 0.113631,-0.20544 0.176461,-0.30448 0.283618,-0.44759 0.646319,-0.84578 1.02601,-1.21002 0.546229,-0.46614 1.13901,-0.87428 1.826828,-1.09531 0.585052,-0.19011 1.185961,-0.31456 1.804278,-0.25603 0.4911,0.0416 0.97548,0.12773 1.3824,0.43108 0.23069,0.16859 0.46718,0.34395 0.63236,0.58281 0.17052,0.19801 0.31193,0.41009 0.45269,0.62979 0.0417,0.0921 0.0931,0.18038 0.125,0.27642 0.11807,0.35501 0.0992,0.72499 0.008,1.08186 -0.0319,0.0841 -0.055,0.17239 -0.0957,0.25251 -0.16208,0.31789 -0.43034,0.59108 -0.7655,0.71836 -0.0198,0.007 0.0363,-0.0217 0.0546,-0.0327 0.007,-0.007 0.0304,-0.0223 0.0215,-0.019 -0.0581,0.0227 -0.0992,0.0765 -0.14968,0.11352 -0.1856,0.13591 -0.22363,0.16311 -0.42052,0.26917 -0.0608,0.0328 -0.12349,0.062 -0.18525,0.0929 -0.47146,0.22784 -0.92095,0.49685 -1.39094,0.72765 -0.500905,0.25038 -0.998375,0.5073 -1.494426,0.76718 -1.502238,0.67589 -2.446449,-1.47479 -0.944219,-2.15068 z"
       inkscape:connector-curvature="0" />
    <path
       style="opacity:1;fill:#ffffff;fill-opacity:1;stroke:none;stroke-width:0.79883528;stroke-linecap:round;stroke-linejoin:round;stroke-miterlimit:4;stroke-dasharray:none;stroke-opacity:1"
       d="m 105.86856,146.20713 c -0.7744,0 -1.54885,0.54782 -1.54885,1.643 v 2.08468 c 0.0173,0.75558 0.0821,1.52041 0.28236,2.25229 0.0413,0.15081 0.0941,0.29839 0.14117,0.44748 0.2599,0.74615 0.70773,1.40795 1.38293,1.8366 0.13571,0.0861 0.28569,0.14737 0.42848,0.22127 0.73531,0.30338 1.53269,0.32855 2.29359,0.10323 0.15072,-0.0446 0.29533,-0.1082 0.44294,-0.16223 0.61793,-0.29498 1.15804,-0.71705 1.56702,-1.2694 0.25094,-0.3389 0.31937,-0.50417 0.50941,-0.86937 0.38929,-0.79491 0.58584,-1.65783 0.71333,-2.52804 0.0402,-0.35652 0.12704,-0.7053 0.20517,-1.05473 0.47579,-2.13803 -2.54804,-2.81092 -3.02384,-0.67289 -0.0948,0.42782 -0.196,0.8555 -0.24809,1.29127 -0.0728,0.53645 -0.18216,1.0723 -0.41074,1.56661 -0.11727,0.24745 -0.22565,0.47706 -0.44212,0.65224 -0.0842,0.0421 -0.14574,0.0692 -0.23158,0.10034 -0.009,0.003 -0.0152,0.0104 -0.0231,0.0165 7.9e-4,0.007 0.0104,0.0183 0.003,0.0215 -0.0122,0.007 -0.0281,9e-5 -0.0421,0 -0.007,0.0217 0.025,0.0446 0.017,0.0661 -0.003,0.0119 -0.0236,-0.009 -0.035,-0.0149 -0.10126,-0.0476 -0.12672,-0.18852 -0.16554,-0.27617 -0.20186,-0.55072 -0.25167,-1.14474 -0.26708,-1.72718 v -2.08511 h 5.3e-4 c 0,-1.09518 -0.77446,-1.64299 -1.54886,-1.64299 z"
       id="path220"
       inkscape:connector-curvature="0" />
    <path
       style="opacity:1;fill:#ffffff;fill-opacity:1;stroke:none;stroke-width:0.79883528;stroke-linecap:round;stroke-linejoin:round;stroke-miterlimit:4;stroke-dasharray:none;stroke-opacity:1"
       id="path242"
       d="m 117.48422,142.62405 c -0.021,0.73587 -0.13953,1.46306 -0.2158,2.19404 -0.0776,0.83762 -0.20719,1.66858 -0.27724,2.50721 -0.0511,0.7062 -0.11063,1.41133 -0.14319,2.11875 -0.02,0.46953 -0.0262,0.93944 -0.0284,1.40933 -7.9e-4,0.27494 -3e-5,0.54987 5.3e-4,0.8248 5.3e-4,0.22279 5.3e-4,0.44558 5.3e-4,0.66836 3e-5,0.18372 3e-5,0.36743 2e-5,0.55116 -1e-5,2.19034 -3.09761,2.19033 -3.0976,-2e-5 v 0 c 0,-0.18347 10e-6,-0.36693 -2e-5,-0.5504 -6e-5,-0.22137 -1.4e-4,-0.44272 -5.3e-4,-0.66408 -5.3e-4,-0.28143 -0.001,-0.56288 -5.3e-4,-0.8443 0.002,-0.51291 0.009,-1.02583 0.0318,-1.53831 0.0348,-0.74642 0.0963,-1.49057 0.15083,-2.23569 0.0732,-0.85976 0.20113,-1.71221 0.28325,-2.57068 0.066,-0.62358 0.16186,-1.24387 0.19883,-1.87017 0,-2.19034 3.09761,-2.19034 3.09761,0 z"
       inkscape:connector-curvature="0" />
    <path
       style="opacity:1;fill:#ffffff;fill-opacity:1;stroke:none;stroke-width:0.79883528;stroke-linecap:round;stroke-linejoin:round;stroke-miterlimit:4;stroke-dasharray:none;stroke-opacity:1"
       id="path62-9"
       d="m 77.54336,149.46151 c 2.356192,-0.0356 0.794531,-0.008 1.79932,0.0126 0.81021,0.0106 1.00525,-5.3e-4 1.97648,0.009 0.0889,-0.0214 0.584301,-0.0422 0.67419,-0.0587 2.667921,-0.46554 3.326321,3.30745 0.658392,3.77301 v 0 c -0.502991,0.0847 -0.586282,0.11239 -1.146291,0.13611 -0.574609,0.0243 -1.155891,-0.0779 -1.731359,-0.0308 -1.961211,-0.0106 0.998968,-0.0378 -2.11812,-0.0132 -2.70706,0.0796 -2.81968,-3.74874 -0.112612,-3.82837 z"
       inkscape:connector-curvature="0"
       sodipodi:nodetypes="ccccccccccc" />
    <path
       sodipodi:nodetypes="ccccccccccc"
       inkscape:connector-curvature="0"
       d="m 78.797861,122.84812 c 2.356189,-0.0356 0.794531,-0.008 1.79932,0.0126 0.81021,0.0106 1.00525,-4.5e-4 1.97648,0.009 0.0889,-0.0214 0.584301,-0.0422 0.67419,-0.0587 2.667921,-0.46554 3.326321,3.30745 0.658389,3.77301 v 0 c -0.502989,0.0847 -0.586279,0.11239 -1.146289,0.13612 -0.574611,0.0243 -1.15589,-0.0779 -1.731359,-0.0308 -1.961211,-0.0106 0.998969,-0.0378 -2.118122,-0.0132 -2.70706,0.0796 -2.81968,-3.74874 -0.112609,-3.82837 z"
       id="path1206"
       style="opacity:1;fill:#ffffff;fill-opacity:1;stroke:none;stroke-width:0.79883528;stroke-linecap:round;stroke-linejoin:round;stroke-miterlimit:4;stroke-dasharray:none;stroke-opacity:1" />
  </g>
</svg>
