<?xml version="1.0" encoding="UTF-8" standalone="no"?>
<!-- Created with Inkscape (http://www.inkscape.org/) -->

<svg
   xmlns:dc="http://purl.org/dc/elements/1.1/"
   xmlns:cc="http://creativecommons.org/ns#"
   xmlns:rdf="http://www.w3.org/1999/02/22-rdf-syntax-ns#"
   xmlns:svg="http://www.w3.org/2000/svg"
   xmlns="http://www.w3.org/2000/svg"
   xmlns:sodipodi="http://sodipodi.sourceforge.net/DTD/sodipodi-0.dtd"
   xmlns:inkscape="http://www.inkscape.org/namespaces/inkscape"
   width="90.9095mm"
   height="75.349228mm"
   viewBox="0 0 90.9095 75.349228"
   version="1.1"
   id="svg5370"
   inkscape:version="0.92.2 (5c3e80d, 2017-08-06)"
   sodipodi:docname="giyeok_draw.svg">
  <defs
     id="defs5364">
    <marker
       inkscape:stockid="Arrow1Mend"
       orient="auto"
       refY="0"
       refX="0"
       id="Arrow1Mend"
       style="overflow:visible"
       inkscape:isstock="true">
      <path
         inkscape:connector-curvature="0"
         id="path5986"
         d="M 0,0 5,-5 -12.5,0 5,5 Z"
         style="fill:#ffffff;fill-opacity:1;fill-rule:evenodd;stroke:#ffffff;stroke-width:1.00000003pt;stroke-opacity:1"
         transform="matrix(-0.4,0,0,-0.4,-4,0)" />
    </marker>
    <marker
       inkscape:stockid="Arrow1Mend"
       orient="auto"
       refY="0"
       refX="0"
       id="Arrow1Mend-5"
       style="overflow:visible"
       inkscape:isstock="true">
      <path
         inkscape:connector-curvature="0"
         id="path5986-4"
         d="M 0,0 5,-5 -12.5,0 5,5 Z"
         style="fill:#ffffff;fill-opacity:1;fill-rule:evenodd;stroke:#ffffff;stroke-width:1.00000003pt;stroke-opacity:1"
         transform="matrix(-0.4,0,0,-0.4,-4,0)" />
    </marker>
  </defs>
  <sodipodi:namedview
     id="base"
     pagecolor="#ffffff"
     bordercolor="#666666"
     borderopacity="1.0"
     inkscape:pageopacity="0.0"
     inkscape:pageshadow="2"
     inkscape:zoom="0.35"
     inkscape:cx="-400.32185"
     inkscape:cy="-44.25189"
     inkscape:document-units="mm"
     inkscape:current-layer="layer1"
     showgrid="false"
     fit-margin-top="0"
     fit-margin-left="0"
     fit-margin-right="0"
     fit-margin-bottom="0"
     inkscape:window-width="1920"
     inkscape:window-height="1000"
     inkscape:window-x="-11"
     inkscape:window-y="-11"
     inkscape:window-maximized="1" />
  <metadata
     id="metadata5367">
    <rdf:RDF>
      <cc:Work
         rdf:about="">
        <dc:format>image/svg+xml</dc:format>
        <dc:type
           rdf:resource="http://purl.org/dc/dcmitype/StillImage" />
        <dc:title></dc:title>
      </cc:Work>
    </rdf:RDF>
  </metadata>
  <g
     inkscape:label="Layer 1"
     inkscape:groupmode="layer"
     id="layer1"
     transform="translate(229.34639,-61.775798)">
    <g
       id="g5326"
       transform="translate(-757.37395,-172.90147)">
      <path
         sodipodi:nodetypes="ccsssc"
         inkscape:connector-curvature="0"
         id="path3209"
         d="m 611.38323,306.32697 c -2.09338,-4.33892 -4.53532,-9.86593 -3.39235,-14.81618 0.45099,-1.68312 3.28165,-5.34136 4.87016,-8.04325 1.08362,-1.84313 2.47647,-3.55166 3.17894,-5.57104 1.12525,-3.23472 1.54996,-6.77287 1.54564,-10.15763 -10e-4,-1.14133 -0.0192,-2.29001 -0.0711,-3.43779"
         style="fill:none;stroke:#ffffff;stroke-width:1;stroke-linecap:round;stroke-linejoin:round;stroke-miterlimit:4;stroke-dasharray:none;stroke-opacity:1" />
      <circle
         r="0.85989583"
         cy="267.56512"
         cx="569.31714"
         id="path3211"
         style="opacity:1;fill:#ffffff;fill-opacity:1;stroke:#ffffff;stroke-width:1;stroke-linecap:round;stroke-linejoin:round;stroke-miterlimit:4;stroke-dasharray:none;stroke-opacity:1;paint-order:normal" />
      <path
         sodipodi:nodetypes="zasscccccccccccsaazzz"
         inkscape:connector-curvature="0"
         id="path3215"
         d="m 571.69843,237.73333 c -4.82253,2.38743 -8.94498,6.388 -11.50937,11.04636 -1.33459,2.42436 -2.18647,5.42028 -1.65365,8.13593 0.30611,1.5602 1.363,3.02946 2.64583,3.96875 1.66654,1.22025 5.95313,1.7198 5.95313,1.7198 l -2.38125,-3.83646 c 4.55811,3.0259 8.28147,2.92148 12.17083,3.43958 l -1.25677,-2.97657 c 7.47118,3.66609 14.22135,4.0349 14.22135,4.0349 v -4.29948 c 7.7194,4.58433 10.04331,4.50245 9.78959,4.29948 v -4.49791 c 2.23437,1.80882 11.2082,6.20565 14.15288,5.5655 l -3.31595,-3.85476 c 0,0 5.61275,3.53371 7.15474,3.71321 0,0 0.96263,-3.43855 0.7276,-5.15938 -0.4102,-3.00338 -0.73625,-6.35414 -2.18281,-9.12811 -1.47316,-2.82497 -3.8425,-5.1783 -6.35001,-7.14376 -2.49172,-1.95308 -4.62928,-3.1107 -8.40051,-4.43176 -3.77123,-1.32106 -8.5774,-2.93255 -13.62605,-3.10887 -5.04864,-0.17631 -11.31705,0.12612 -16.13958,2.51355 z"
         style="fill:none;stroke:#ffffff;stroke-width:1;stroke-linecap:round;stroke-linejoin:round;stroke-miterlimit:4;stroke-dasharray:none;stroke-opacity:1" />
      <path
         sodipodi:nodetypes="ccsaacc"
         inkscape:connector-curvature="0"
         id="path3217"
         d="m 567.71586,286.44319 c 0,0 5.80935,-0.29419 8.64436,0.0548 2.18031,0.29799 4.33034,0.90691 6.37074,1.73114 2.58933,1.04597 5.09798,2.37291 7.34219,4.0349 2.3232,1.72049 4.30829,3.87646 6.21187,6.05217 1.43813,1.64373 3.90844,5.25877 3.90844,5.25877 l 2.38125,3.30729"
         style="fill:none;stroke:#ffffff;stroke-width:0.26499999;stroke-linecap:round;stroke-linejoin:round;stroke-miterlimit:4;stroke-dasharray:1.05999995, 1.05999995;stroke-dashoffset:0;stroke-opacity:1" />
      <path
         sodipodi:nodetypes="csssscc"
         inkscape:connector-curvature="0"
         id="path3219"
         d="m 566.13461,296.34588 c 0,0 7.01902,-0.0735 7.34975,-0.0735 0.33073,0 3.08548,-0.18178 4.63021,-0.19844 1.03646,-0.0112 2.09466,-0.14783 3.10886,0.0661 1.89317,0.39932 3.70168,1.2319 5.35862,2.23096 1.37147,0.82693 3.70336,3.0607 3.70336,3.0607 l 1.98437,3.24115"
         style="fill:none;stroke:#ffffff;stroke-width:0.26499999;stroke-linecap:round;stroke-linejoin:round;stroke-miterlimit:4;stroke-dasharray:1.05999995, 1.05999995;stroke-dashoffset:0;stroke-opacity:1" />
      <path
         sodipodi:nodetypes="sazazscasssaccs"
         inkscape:connector-curvature="0"
         id="path3240"
         d="m 578.90867,292.87448 c -0.47036,-0.81585 -0.78616,-1.71784 -1.28985,-2.51354 -0.63922,-1.00979 -1.4103,-2.25233 -2.18282,-2.84427 -0.77252,-0.59194 -1.33761,-0.77021 -2.08359,-0.8599 -1.51704,-0.18239 -3.29743,0.43769 -4.53099,0.69453 -1.23356,0.25684 -2.06288,0.61246 -2.84427,1.2237 -0.61399,0.4803 -1.23053,1.10012 -1.15755,1.5875 0.073,0.48738 0.47381,0.51154 0.79375,0.59531 0.57014,0.14929 1.52135,-0.19842 1.75286,-0.23151 0.23152,-0.0331 3.34037,-0.72758 3.47266,-0.69448 0,0 1.12449,-0.1323 1.52136,0.46301 0.39688,0.59532 0.63381,1.42908 0.82682,2.18282 0.29548,1.1539 0.49609,3.5388 0.49609,3.5388 l 7.37526,0.19843 c 0,0 -1.48839,-2.19326 -2.14973,-3.3404 z"
         style="fill:#ed4c67;fill-opacity:1;stroke:none;stroke-width:0.26458332px;stroke-linecap:butt;stroke-linejoin:miter;stroke-opacity:1" />
      <path
         style="fill:none;stroke:#ffffff;stroke-width:1;stroke-linecap:round;stroke-linejoin:round;stroke-miterlimit:4;stroke-dasharray:none;stroke-opacity:1"
         d="m 560.16296,259.88382 c -0.0471,0.51921 -0.0798,1.03716 -0.0992,1.55252 0.004,3.51804 1.03437,7.20015 -0.0562,10.34424 -1.03012,2.83072 -5.09833,7.4615 -5.09833,7.4615 0,0 -0.0246,1.53447 0.45302,2.04268 0.67993,0.72344 1.62406,0.83436 2.54558,1.2038 0.83878,0.33626 2.71842,0.87746 2.71842,0.87746 -0.57389,1.12286 -0.99424,2.15798 -0.98018,2.94487 0,0 0.66435,0.38298 1.03378,0.45681 2.26834,0.45333 4.63098,-0.31898 6.93798,-0.14974 1.21935,0.0894 2.38444,0.4129 3.23621,1.18347 0.72776,0.65838 1.16311,1.57628 1.28222,2.65025 0.11911,1.07397 -0.33516,2.53799 -1.11192,3.47297 -0.84356,1.0154 -2.2083,1.54819 -3.4864,1.87847 -1.80152,0.46553 -5.58173,0.0645 -5.58173,0.0645 0,0 -0.19451,1.0375 0.0214,1.4818 0.19648,0.40432 1.04817,0.84854 1.04817,0.84854 0,0 0.35407,1.07543 0.75446,1.58909 0.4004,0.51367 1.13145,1.11997 1.6573,1.36743 0.41341,0.19455 1.51071,0.50806 2.53909,0.56156 2.59666,0.13509 5.51048,-0.80009 7.77882,-0.22587 1.18427,0.32401 2.31809,1.00603 3.15019,1.90885 1.54566,1.67702 3.05774,6.12073 3.05774,6.12073"
         id="path3221"
         inkscape:connector-curvature="0"
         sodipodi:nodetypes="ccccssccssacaacaczsscsc" />
      <path
         sodipodi:nodetypes="czzzzzzzzzc"
         inkscape:connector-curvature="0"
         id="path3242"
         d="m 559.64607,291.07342 c 0,0 -3.07214,-0.10166 -4.63021,-0.79375 -1.55807,-0.69209 -3.16125,-1.36327 -4.9858,-2.92275 -1.82455,-1.55948 -3.02526,-5.33859 -5.46525,-6.66839 -2.43999,-1.3298 -5.64424,-1.61226 -7.9953,-1.31867 -2.35106,0.29359 -4.17569,1.00939 -5.60128,2.44732 -1.42559,1.43793 -2.77238,3.17786 -2.36908,5.55207 0.4033,2.37421 2.98947,4.80345 5.6717,6.21363 2.68223,1.41018 6.80748,1.28716 9.86474,1.43835 3.05726,0.15119 5.88024,0.0559 8.50327,-0.63651 2.62303,-0.69241 7.00721,-3.3113 7.00721,-3.3113 z"
         style="fill:none;stroke:#ffffff;stroke-width:1;stroke-linecap:round;stroke-linejoin:round;stroke-miterlimit:4;stroke-dasharray:none;stroke-opacity:1" />
      <text
         transform="rotate(10.316882)"
         id="text3246"
         y="188.01335"
         x="573.49036"
         style="font-style:normal;font-weight:normal;font-size:6.19325113px;line-height:1.25;font-family:sans-serif;letter-spacing:0px;word-spacing:0px;fill:#ffffff;fill-opacity:1;stroke:none;stroke-width:0.26458332"
         xml:space="preserve"><tspan
           style="fill:#ffffff;fill-opacity:1;stroke-width:0.26458332"
           y="188.01335"
           x="573.49036"
           id="tspan3244"
           sodipodi:role="line">gggg...</tspan></text>
      <path
         sodipodi:nodetypes="cccccscc"
         inkscape:connector-curvature="0"
         id="path3248"
         d="m 587.54149,269.03903 c 0,0 1.11906,-1.93 2.07675,-2.34764 1.82144,-0.50783 4.02374,0.39864 5.23705,1.535 1.59577,1.78532 2.34753,4.38199 2.25732,6.56134 -0.23877,1.77893 -0.84021,3.3418 -2.07308,4.49279 -0.571,0.51945 -1.48017,1.02102 -2.11051,1.4666 -0.55661,0.39345 -1.05273,0.87444 -1.5049,1.38451 -1.90811,2.20642 -4.51969,3.05232 -5.17683,-0.42138"
         style="fill:none;stroke:#ffffff;stroke-width:1;stroke-linecap:round;stroke-linejoin:round;stroke-miterlimit:4;stroke-dasharray:none;stroke-opacity:1" />
      <path
         sodipodi:nodetypes="caac"
         inkscape:connector-curvature="0"
         id="path1625"
         d="m 544.56342,274.02228 c 0,0 -0.44283,-0.73728 -0.78013,-0.98657 -0.69679,-0.51499 -1.63348,-0.58619 -2.42293,-0.94389 -0.28395,-0.12864 -0.8297,-0.43132 -0.8297,-0.43132"
         style="fill:none;stroke:#ffffff;stroke-width:0.60000002;stroke-linecap:round;stroke-linejoin:round;stroke-miterlimit:4;stroke-dasharray:none;stroke-opacity:1" />
      <path
         transform="matrix(0.97258146,0.23256245,-0.23330926,0.97240259,0,0)"
         d="m 593.05795,139.64593 a 1.5092771,1.5069982 0 0 1 -1.76956,0.76656 1.5092771,1.5069982 0 0 1 -1.07908,-1.59643"
         sodipodi:open="true"
         sodipodi:end="3.2411253"
         sodipodi:start="0.46823474"
         sodipodi:ry="1.5069982"
         sodipodi:rx="1.5092771"
         sodipodi:cy="138.96581"
         sodipodi:cx="591.71112"
         sodipodi:type="arc"
         id="path1627"
         style="opacity:1;fill:none;fill-opacity:1;stroke:#ffffff;stroke-width:0.60000008;stroke-linecap:round;stroke-linejoin:round;stroke-miterlimit:4;stroke-dasharray:none;stroke-dashoffset:0;stroke-opacity:1;paint-order:normal" />
      <path
         style="fill:none;stroke:#ffffff;stroke-width:0.60000002;stroke-linecap:round;stroke-linejoin:round;stroke-miterlimit:4;stroke-dasharray:none;stroke-opacity:1"
         d="m 547.58878,273.79943 c 0,0 0.46483,-0.72364 0.80949,-0.96271 0.71198,-0.49384 1.65039,-0.53689 2.45025,-0.87074 0.2877,-0.12006 0.84232,-0.40622 0.84232,-0.40622"
         id="path1633"
         inkscape:connector-curvature="0"
         sodipodi:nodetypes="caac" />
      <path
         transform="matrix(-0.97912382,0.20326474,0.20392629,0.97898624,0,0)"
         style="opacity:1;fill:none;fill-opacity:1;stroke:#ffffff;stroke-width:0.60000008;stroke-linecap:round;stroke-linejoin:round;stroke-miterlimit:4;stroke-dasharray:none;stroke-dashoffset:0;stroke-opacity:1;paint-order:normal"
         id="path1635"
         sodipodi:type="arc"
         sodipodi:cx="-482.00296"
         sodipodi:cy="378.49094"
         sodipodi:rx="1.5093098"
         sodipodi:ry="1.5069654"
         sodipodi:start="0.46823474"
         sodipodi:end="3.2411253"
         sodipodi:open="true"
         d="m -480.6561,379.17105 a 1.5093098,1.5069654 0 0 1 -1.7696,0.76654 1.5093098,1.5069654 0 0 1 -1.0791,-1.5964" />
      <path
         sodipodi:nodetypes="cc"
         inkscape:connector-curvature="0"
         id="path1659"
         d="m 544.2531,271.53858 c 0.0227,0.84365 0.28642,1.27348 0.51683,1.76048"
         style="fill:none;stroke:#ffffff;stroke-width:0.60000002;stroke-linecap:round;stroke-linejoin:round;stroke-miterlimit:4;stroke-dasharray:none;stroke-opacity:1" />
      <path
         style="fill:none;stroke:#ffffff;stroke-width:0.60000002;stroke-linecap:round;stroke-linejoin:round;stroke-miterlimit:4;stroke-dasharray:none;stroke-opacity:1"
         d="m 547.66458,271.48352 c 0.0639,0.84155 -0.15443,1.29603 -0.33369,1.80403"
         id="path1661"
         inkscape:connector-curvature="0"
         sodipodi:nodetypes="cc" />
      <path
         sodipodi:nodetypes="csssscsscscssccsscscssssc"
         inkscape:connector-curvature="0"
         id="path1663"
         d="m 547.26433,278.3021 c 0.85905,-0.10539 1.7217,-0.31461 2.50503,-0.68207 0.67851,-0.31829 1.31952,-0.75228 1.84051,-1.29047 0.52775,-0.54517 0.92527,-1.21713 1.24497,-1.90483 0.4954,-1.06563 0.98472,-2.97844 1.01261,-3.37633 0.0279,-0.39787 -1.32289,-2.7436 -1.32289,-2.7436 0,0 -0.0913,-1.08729 -0.0374,-1.62712 0.10787,-1.08031 0.7269,-2.74795 0.71745,-3.1772 -0.009,-0.4293 0.0409,-1.76572 -0.33121,-1.80977 -0.37222,-0.044 -1.51415,0.89413 -2.21093,1.42665 -0.65418,0.49998 -1.83693,1.65091 -1.83693,1.65091 0,0 -1.95355,0.23066 -2.93436,0.2198 -1.06093,-0.0118 -2.15816,0.0169 -3.16799,-0.30801 -0.87023,-0.27998 -1.95307,-0.96147 -2.37139,-1.37614 -0.41829,-0.41468 -2.36448,-1.21717 -2.36448,-1.21717 0,0 0.0599,1.13905 0.15487,1.70017 0.17667,1.04423 0.49467,2.05994 0.76864,3.08304 0.1688,0.63033 0.53907,1.88195 0.53907,1.88195 0,0 -0.64054,0.88975 -0.80922,1.40222 l -7e-5,-1e-5 c -0.18598,0.56488 -0.54118,1.22632 -0.53007,1.82084 0.013,0.69934 0.39648,1.37189 0.64258,2.02679 0.1994,0.53066 0.54245,1.00689 0.91691,1.43289 0.57047,0.64896 1.24361,1.22423 1.9866,1.66619 0.89283,0.5311 1.64047,0.88328 2.6593,1.08833"
         style="fill:none;stroke:#ffffff;stroke-width:0.60000002;stroke-linecap:round;stroke-linejoin:round;stroke-miterlimit:4;stroke-dasharray:none;stroke-opacity:1" />
      <path
         inkscape:connector-curvature="0"
         id="path1665"
         d="m 540.20052,263.17304 2.42223,2.75927"
         style="fill:none;stroke:#ffffff;stroke-width:0.60000002;stroke-linecap:round;stroke-linejoin:round;stroke-miterlimit:4;stroke-dasharray:none;stroke-opacity:1" />
      <path
         inkscape:connector-curvature="0"
         id="path1667"
         d="m 550.39482,263.56549 -1.72424,2.30714"
         style="fill:none;stroke:#ffffff;stroke-width:0.60000002;stroke-linecap:round;stroke-linejoin:round;stroke-miterlimit:4;stroke-dasharray:none;stroke-opacity:1" />
      <path
         sodipodi:nodetypes="cssccssc"
         inkscape:connector-curvature="0"
         id="path1693"
         d="m 542.84687,275.85347 c 0,0 0.43362,0.55057 0.74438,0.67754 0.35822,0.14636 0.78173,0.12393 1.16036,0.0437 0.42143,-0.0893 1.16038,-0.56827 1.16038,-0.56827 l 0.24081,-0.0437 c 0,0 0.43916,0.36077 0.70058,0.45898 0.34486,0.12954 0.73092,0.21143 1.0947,0.1529 0.29323,-0.0471 0.79913,-0.39343 0.79913,-0.39343"
         style="fill:none;stroke:#ffffff;stroke-width:0.60000002;stroke-linecap:round;stroke-linejoin:round;stroke-miterlimit:4;stroke-dasharray:none;stroke-opacity:1" />
      <path
         sodipodi:nodetypes="cccc"
         inkscape:connector-curvature="0"
         id="path1695"
         d="m 546.1528,275.96274 c -0.64599,-0.29831 -0.89065,-0.73104 -1.029,-1.11468 0.6517,-0.0634 1.29942,-0.11084 1.89379,0.0548 -0.0831,0.46808 -0.53853,0.80725 -0.86479,1.05997 z"
         style="fill:none;stroke:#ffffff;stroke-width:0.60000002;stroke-linecap:round;stroke-linejoin:round;stroke-miterlimit:4;stroke-dasharray:none;stroke-opacity:1" />
      <path
         sodipodi:nodetypes="ccsassc"
         inkscape:connector-curvature="0"
         id="path1698"
         d="m 543.59125,276.53101 0.73001,1.62535 c 0,0 0.009,0.0226 0.015,0.0327 0.29913,0.49307 0.55151,1.10939 1.07242,1.3581 0.29958,0.143 0.71141,0.15963 0.99618,-0.0112 0.41031,-0.24571 0.64836,-0.77942 0.85951,-1.23386 0.22901,-0.49287 0.42126,-1.57473 0.42126,-1.57473"
         style="fill:none;stroke:#ffffff;stroke-width:0.60000002;stroke-linecap:round;stroke-linejoin:round;stroke-miterlimit:4;stroke-dasharray:none;stroke-opacity:1" />
      <path
         sodipodi:nodetypes="cc"
         style="fill:none;stroke:#ffffff;stroke-width:0.60000002;stroke-linecap:round;stroke-linejoin:round;stroke-miterlimit:4;stroke-dasharray:none;stroke-opacity:1"
         d="m 546.80242,279.02838 -0.0957,-0.36655"
         id="path1703"
         inkscape:connector-curvature="0" />
      <path
         sodipodi:nodetypes="cc"
         inkscape:connector-curvature="0"
         id="path1705"
         d="m 545.01155,279.01292 0.0957,-0.34336"
         style="fill:none;stroke:#ffffff;stroke-width:0.60000002;stroke-linecap:round;stroke-linejoin:round;stroke-miterlimit:4;stroke-dasharray:none;stroke-opacity:1" />
      <path
         sodipodi:nodetypes="cc"
         style="fill:none;stroke:#ffffff;stroke-width:0.60000002;stroke-linecap:round;stroke-linejoin:round;stroke-miterlimit:4;stroke-dasharray:none;stroke-opacity:1"
         d="m 544.63507,276.91876 -0.11889,-0.2661"
         id="path1707"
         inkscape:connector-curvature="0" />
      <path
         sodipodi:nodetypes="cc"
         inkscape:connector-curvature="0"
         id="path1711"
         d="m 546.84526,276.84921 0.0416,-0.24291"
         style="fill:none;stroke:#ffffff;stroke-width:0.60000002;stroke-linecap:round;stroke-linejoin:round;stroke-miterlimit:4;stroke-dasharray:none;stroke-opacity:1" />
    </g>
    <path
       style="fill:none;stroke:#ffffff;stroke-width:0.26499999;stroke-linecap:butt;stroke-linejoin:miter;stroke-miterlimit:4;stroke-dasharray:none;stroke-opacity:1;marker-end:url(#Arrow1Mend-5)"
       d="m -180.99376,109.03655 -0.92189,4.24069"
       id="path5975"
       inkscape:connector-curvature="0"
       sodipodi:nodetypes="cc" />
    <text
       xml:space="preserve"
       style="font-style:normal;font-weight:normal;font-size:2.6835072px;line-height:1.25;font-family:sans-serif;letter-spacing:0px;word-spacing:0px;fill:#ffffff;fill-opacity:1;stroke:none;stroke-width:0.26458332"
       x="-184.44214"
       y="108.78736"
       id="text6243"><tspan
         sodipodi:role="line"
         id="tspan6241"
         x="-184.44214"
         y="108.78736"
         style="fill:#ffffff;fill-opacity:1;stroke-width:0.26458332">touch</tspan></text>
    <path
       style="fill:none;stroke:#ffffff;stroke-width:0.26499999;stroke-linecap:round;stroke-linejoin:round;stroke-miterlimit:4;stroke-dasharray:none;stroke-opacity:1"
       d="m -216.85514,101.75364 -3.13441,-0.23044"
       id="path8183"
       inkscape:connector-curvature="0" />
    <path
       style="fill:none;stroke:#ffffff;stroke-width:0.26499999;stroke-linecap:round;stroke-linejoin:round;stroke-miterlimit:4;stroke-dasharray:none;stroke-opacity:1"
       d="m -216.34812,102.9521 -2.62737,1.42894"
       id="path8185"
       inkscape:connector-curvature="0" />
    <path
       style="fill:none;stroke:#ffffff;stroke-width:0.26499999;stroke-linecap:round;stroke-linejoin:round;stroke-miterlimit:4;stroke-dasharray:none;stroke-opacity:1"
       d="m -206.57611,101.61538 2.62737,-0.23049"
       id="path8187"
       inkscape:connector-curvature="0" />
    <path
       style="fill:none;stroke:#ffffff;stroke-width:0.26499999;stroke-linecap:round;stroke-linejoin:round;stroke-miterlimit:4;stroke-dasharray:none;stroke-opacity:1"
       d="m -206.85267,103.22866 1.79768,0.8758"
       id="path8191"
       inkscape:connector-curvature="0" />
  </g>
</svg>
