<?xml version="1.0" encoding="UTF-8" standalone="no"?>
<!-- Created with Inkscape (http://www.inkscape.org/) -->

<svg
   xmlns:dc="http://purl.org/dc/elements/1.1/"
   xmlns:cc="http://creativecommons.org/ns#"
   xmlns:rdf="http://www.w3.org/1999/02/22-rdf-syntax-ns#"
   xmlns:svg="http://www.w3.org/2000/svg"
   xmlns="http://www.w3.org/2000/svg"
   xmlns:sodipodi="http://sodipodi.sourceforge.net/DTD/sodipodi-0.dtd"
   xmlns:inkscape="http://www.inkscape.org/namespaces/inkscape"
   width="104.14814mm"
   height="90.643005mm"
   viewBox="0 0 104.14814 90.643005"
   version="1.1"
   id="svg8"
   inkscape:version="0.92.2 (5c3e80d, 2017-08-06)"
   sodipodi:docname="logo.svg">
  <defs
     id="defs2" />
  <sodipodi:namedview
     id="base"
     pagecolor="#ffffff"
     bordercolor="#666666"
     borderopacity="1.0"
     inkscape:pageopacity="0"
     inkscape:pageshadow="2"
     inkscape:zoom="0.35"
     inkscape:cx="426.56875"
     inkscape:cy="-15.269734"
     inkscape:document-units="mm"
     inkscape:current-layer="layer1"
     showgrid="false"
     fit-margin-top="0"
     fit-margin-left="0"
     fit-margin-right="0"
     fit-margin-bottom="0"
     inkscape:window-width="1920"
     inkscape:window-height="1000"
     inkscape:window-x="-11"
     inkscape:window-y="-11"
     inkscape:window-maximized="1" />
  <metadata
     id="metadata5">
    <rdf:RDF>
      <cc:Work
         rdf:about="">
        <dc:format>image/svg+xml</dc:format>
        <dc:type
           rdf:resource="http://purl.org/dc/dcmitype/StillImage" />
        <dc:title></dc:title>
      </cc:Work>
    </rdf:RDF>
  </metadata>
  <g
     inkscape:label="Layer 1"
     inkscape:groupmode="layer"
     id="layer1"
     transform="translate(167.66952,-54.150209)">
    <path
       inkscape:connector-curvature="0"
       d="m -149.54469,59.182606 c 0.0189,1.340489 -0.0399,2.683143 0.0309,4.022252 0.0145,0.207117 0.0287,0.41426 0.0436,0.621349 0.0373,0.519685 0.0548,0.725258 0.0905,1.238095 0.0132,0.181367 0.019,0.363247 0.0364,0.544233 0.0298,0.309633 1.8e-4,0.328478 0.0789,0.197161 0.0467,0.112171 0.0933,0.224227 0.14002,0.336337 1.65543,4.156069 -4.22214,6.497206 -5.87759,2.341138 v 0 c -0.0897,-0.23025 -0.17938,-0.460507 -0.26908,-0.690743 -0.10108,-0.364558 -0.2224,-0.724084 -0.30312,-1.093681 -0.22745,-1.041419 -0.1016,-2.146817 -0.25931,-3.196881 -0.0619,-1.439018 -0.0322,-2.879128 -0.0379,-4.31926 0,-4.473649 6.32668,-4.473649 6.32668,0 z"
       id="path1128"
       style="opacity:1;fill:#ffffff;fill-opacity:1;stroke:none;stroke-width:1.31956828;stroke-linecap:round;stroke-linejoin:round;stroke-miterlimit:4;stroke-dasharray:none;stroke-opacity:1" />
    <path
       inkscape:connector-curvature="0"
       d="m -162.6936,71.68834 c 2.18592,-1.195433 4.47802,-2.186051 6.72626,-3.257705 2.64097,-1.272699 5.23687,-2.632266 7.93705,-3.776865 1.71467,-0.636138 3.38892,-1.37863 5.10918,-1.99864 0.54695,-0.159771 1.08473,-0.346457 1.62009,-0.540696 4.20881,-1.516359 6.35327,4.435809 2.14445,5.952162 v 0 c -0.54042,0.193692 -1.08023,0.390846 -1.63357,0.545537 -1.61138,0.570356 -3.16895,1.287038 -4.77666,1.868996 -2.61549,1.102195 -5.11795,2.440178 -7.67894,3.660875 -2.21248,1.054003 -4.4684,2.026964 -6.61848,3.205088 -4.00134,2.000682 -6.83072,-3.658076 -2.82938,-5.658752 z"
       id="path1130"
       style="opacity:1;fill:#ffffff;fill-opacity:1;stroke:none;stroke-width:1.31956828;stroke-linecap:round;stroke-linejoin:round;stroke-miterlimit:4;stroke-dasharray:none;stroke-opacity:1" />
    <path
       inkscape:connector-curvature="0"
       d="m -150.26782,79.938629 c -0.28737,1.494667 -0.63326,2.970352 -0.8349,4.480682 -0.0272,1.103835 -0.50773,2.526978 0.18614,3.518572 0.38634,0.03394 0.80448,-0.01939 1.20442,-0.09184 1.34818,-0.238696 2.06237,-0.961373 2.87089,-1.994203 0.81039,-1.320708 1.33798,-2.770644 1.54287,-4.303467 0.0315,-0.368805 10e-4,-1.090219 -0.30993,-1.388456 -0.11942,-0.114275 -0.0119,0.147214 0.0372,0.284813 0.004,0.03182 0.0393,0.08103 0.0106,0.09554 -0.0543,0.02759 -0.12246,-0.01816 -0.18257,-0.0083 -0.1504,0.02424 -0.29078,0.09092 -0.43609,0.136739 -0.43759,0.137798 -0.63547,0.243217 -1.08403,0.440944 -1.2512,0.602531 -2.36307,1.457475 -3.4958,2.249833 -3.66951,2.55894 -7.2884,-2.630526 -3.61889,-5.189465 v 0 c 1.53071,-1.064546 3.04278,-2.191876 4.766,-2.934948 0.46162,-0.17581 0.91239,-0.383342 1.38488,-0.52747 2.37705,-0.72506 4.55615,-0.525632 6.65048,0.831306 0.35112,0.331093 0.74387,0.622987 1.05336,0.993294 1.38568,1.658009 1.66923,3.915181 1.47629,5.987374 -0.0687,0.412225 -0.1189,0.828 -0.20623,1.236695 -0.47151,2.207438 -1.43243,4.287606 -2.71854,6.13454 -0.31444,0.368355 -0.60677,0.756831 -0.94332,1.105091 -1.74252,1.803105 -3.96487,2.875865 -6.4505,3.167478 -1.33363,0.02957 -1.69077,0.131025 -2.99893,-0.215146 -1.3667,-0.361628 -2.64041,-1.156786 -3.54468,-2.245933 -0.31123,-0.374848 -0.53422,-0.814925 -0.80135,-1.222397 -0.16865,-0.426072 -0.37157,-0.840114 -0.50596,-1.278203 -0.56146,-1.830117 -0.35866,-3.767402 -0.15564,-5.633782 0.20972,-1.52312 0.51487,-3.022526 0.84093,-4.523802 0.63266,-4.428673 6.89575,-3.533949 6.26308,0.894738 z"
       id="path1132"
       style="opacity:1;fill:#ffffff;fill-opacity:1;stroke:none;stroke-width:1.31956828;stroke-linecap:round;stroke-linejoin:round;stroke-miterlimit:4;stroke-dasharray:none;stroke-opacity:1" />
    <path
       inkscape:connector-curvature="0"
       d="m -125.652,57.897766 c -0.13063,2.010147 -0.30149,4.017411 -0.46151,6.025447 -0.22502,2.996327 -0.28262,6.001441 -0.32215,9.004813 -0.0272,2.703715 -0.0255,5.407581 -0.0245,8.111378 0.001,1.940227 0.003,3.880467 0.004,5.820694 -0.0279,0.970448 0.0256,1.937598 0.0779,2.906004 0.24041,4.467184 -6.07712,4.807181 -6.31753,0.340004 v 0 c -0.0579,-1.080543 -0.11296,-2.160712 -0.087,-3.243331 -6.8e-4,-1.94033 -0.003,-3.880679 -0.004,-5.821008 -6.9e-4,-2.732448 -0.003,-5.464958 0.0249,-8.197296 0.0417,-3.143266 0.10424,-6.288274 0.34162,-9.424009 0.16764,-2.102209 0.3368,-4.20433 0.49033,-6.30742 0.5549,-4.439092 6.83273,-3.654368 6.27784,0.784724 z"
       id="path1134"
       style="opacity:1;fill:#ffffff;fill-opacity:1;stroke:none;stroke-width:1.31956828;stroke-linecap:round;stroke-linejoin:round;stroke-miterlimit:4;stroke-dasharray:none;stroke-opacity:1" />
    <path
       inkscape:connector-curvature="0"
       d="m -125.35238,68.73327 c 1.18266,-0.01052 2.36606,0.02759 3.54756,-0.03127 0.21045,-0.02294 0.42089,-0.04595 0.63131,-0.06906 4.45089,-0.450742 5.0883,5.843758 0.63744,6.29448 v 0 c -0.32862,0.03148 -0.65725,0.06323 -0.98586,0.09475 -1.2764,0.05258 -2.55308,0.0379 -3.83045,0.03762 -4.47364,0 -4.47364,-6.326681 0,-6.326681 z"
       id="path1136"
       style="opacity:1;fill:#ffffff;fill-opacity:1;stroke:none;stroke-width:1.31956828;stroke-linecap:round;stroke-linejoin:round;stroke-miterlimit:4;stroke-dasharray:none;stroke-opacity:1" />
    <path
       inkscape:connector-curvature="0"
       d="m -149.88419,100.76274 c 0.0574,1.01299 0.10055,2.02616 0.62397,2.91855 0.63413,0.79604 1.61657,0.9055 2.55952,1.07061 2.64778,0.3077 5.27849,-0.18467 7.86188,-0.718 3.36634,-0.76481 6.62625,-1.93128 9.86864,-3.10223 1.50036,-0.54243 2.93854,-1.233673 4.37875,-1.914849 4.04561,-1.909576 6.74616,3.811799 2.70053,5.721349 v 0 c -1.62179,0.76411 -3.24249,1.53648 -4.93163,2.1445 -3.52934,1.27287 -7.07937,2.53405 -10.74742,3.34936 -3.41463,0.69396 -6.89285,1.26058 -10.37697,0.72259 -0.50162,-0.10767 -1.01079,-0.18494 -1.50486,-0.32323 -2.42742,-0.67936 -4.24217,-2.03145 -5.51087,-4.20983 -0.17708,-0.39337 -0.37924,-0.77637 -0.53121,-1.18012 -0.53894,-1.43178 -0.64573,-2.96642 -0.71702,-4.4787 0,-4.473642 6.32669,-4.473642 6.32669,0 z"
       id="path1138"
       style="opacity:1;fill:#ffffff;fill-opacity:1;stroke:none;stroke-width:1.31956828;stroke-linecap:round;stroke-linejoin:round;stroke-miterlimit:4;stroke-dasharray:none;stroke-opacity:1" />
    <path
       inkscape:connector-curvature="0"
       d="m -107.68699,57.552873 c 2.25883,-0.321998 4.50683,-0.712974 6.76172,-1.060093 2.43032,-0.366682 4.882523,-0.537227 7.336713,-0.627303 1.432347,-0.04739 2.900232,-0.125234 4.256261,0.436034 0.324613,0.134363 0.618904,0.332678 0.928352,0.49901 1.473753,1.044758 2.243571,2.580783 2.859656,4.225913 0.570908,1.576372 0.724554,3.246207 0.814979,4.907056 0.06043,1.605302 0.04718,3.212223 0.04541,4.818324 -0.0048,4.473636 -6.331906,4.466234 -6.326682,-0.0083 v 0 c 0.0014,-1.492154 0.01393,-2.984991 -0.0366,-4.476558 -0.0521,-1.023195 -0.104381,-2.061883 -0.429254,-3.042143 -0.08472,-0.231929 -0.1465,-0.472633 -0.24518,-0.698963 -0.04315,-0.0991 -0.10081,-0.191207 -0.151139,-0.286814 -0.0068,-0.02711 -0.01058,-0.05551 -0.0213,-0.08127 -0.01324,-0.03059 -0.0834,-0.09118 -0.05053,-0.0863 0.07995,0.01188 0.143834,0.07388 0.215753,0.110848 0.269577,0.07089 0.400978,0.11282 0.370873,0.04787 -0.0269,-0.05811 -0.122592,-0.03865 -0.186105,-0.04657 -0.602229,-0.07471 -1.21126,0.01557 -1.814665,0.0041 -2.209361,0.07953 -4.417147,0.229628 -6.605287,0.558018 -2.161545,0.331879 -4.315095,0.716006 -6.482335,1.010699 -4.38676,0.877347 -5.62753,-5.326483 -1.24077,-6.203837 z"
       id="path1140"
       style="opacity:1;fill:#ffffff;fill-opacity:1;stroke:none;stroke-width:1.31956828;stroke-linecap:round;stroke-linejoin:round;stroke-miterlimit:4;stroke-dasharray:none;stroke-opacity:1" />
    <path
       inkscape:connector-curvature="0"
       d="m -109.74811,77.776858 c 2.62875,-0.30854 5.26116,-0.581984 7.88878,-0.901115 3.565889,-0.450367 7.136177,-0.859096 10.694405,-1.368389 2.832745,-0.403464 5.666426,-0.785871 8.519014,-1.016127 1.064816,-0.151085 2.155378,-0.03598 3.221382,-0.142967 0.04222,-0.0041 0.07181,-0.04739 0.112294,-0.05995 0.144349,-0.04431 0.293036,-0.07313 0.439561,-0.109659 4.351705,-1.03735 5.818759,5.116882 1.467046,6.154245 v 0 c -0.82073,0.190544 -0.955273,0.244582 -1.876189,0.340332 -0.944942,0.09817 -1.913679,-0.01188 -2.857723,0.124305 -2.722602,0.217358 -5.425854,0.590574 -8.12961,0.972687 -3.602691,0.51494 -7.217218,0.931003 -10.8277,1.386012 -2.69078,0.32656 -5.38628,0.608041 -8.0785,0.921252 -4.45528,0.405028 -5.02806,-5.895673 -0.57279,-6.300694 z"
       id="path1142"
       style="opacity:1;fill:#ffffff;fill-opacity:1;stroke:none;stroke-width:1.31956828;stroke-linecap:round;stroke-linejoin:round;stroke-miterlimit:4;stroke-dasharray:none;stroke-opacity:1" />
    <path
       inkscape:connector-curvature="0"
       d="m -106.84221,86.362222 c 0.94219,-0.06111 1.88424,-0.124695 2.82584,-0.194368 2.17363,-0.176677 4.346893,-0.357724 6.520737,-0.531901 1.965264,-0.138241 3.935126,-0.268331 5.906515,-0.240295 0.363346,0.0048 0.726465,0.02137 1.089719,0.03209 1.343028,0.06371 2.688973,0.218718 3.974592,0.629748 0.790151,0.252632 0.928249,0.351291 1.667288,0.708974 0.963066,0.531791 1.799977,1.255854 2.454895,2.140651 0.350836,0.473991 0.438622,0.667663 0.715434,1.166448 0.47283,0.877033 0.721378,1.842291 0.939741,2.80701 0.139718,0.615695 0.214864,1.242438 0.250466,1.871973 0.01371,0.28185 0.01489,0.564041 0.01321,0.846136 -0.01978,0.193822 0.08419,0.465067 -0.03058,-0.284273 -0.01903,-0.124039 -0.0615,-0.243217 -0.09224,-0.364832 1.320071,3.603425 -3.775939,5.470297 -5.096012,1.866873 v 0 c -0.04984,-0.173884 -0.116256,-0.343828 -0.149665,-0.521604 -0.04821,-0.256203 -0.06323,-0.483817 -0.05845,-0.73152 7.51e-4,-0.173986 0.0014,-0.348041 -0.0048,-0.521925 -0.01502,-0.325296 -0.05387,-0.648865 -0.12522,-0.967027 -0.108205,-0.481973 -0.203143,-0.976395 -0.421382,-1.422965 -0.02984,-0.05968 -0.149078,-0.303945 -0.192989,-0.373441 -0.166332,-0.263271 -0.373715,-0.496743 -0.639075,-0.662549 -0.103588,-0.05708 -0.203796,-0.120871 -0.310773,-0.171297 -0.953153,-0.449711 -2.023767,-0.526253 -3.059403,-0.591701 -0.866569,-0.02765 -1.03049,-0.0424 -1.912529,-0.031 -1.496797,0.01925 -2.991662,0.118631 -4.484296,0.224364 -2.184971,0.175065 -4.369363,0.357245 -6.554173,0.534495 -1.07449,0.07929 -2.1495,0.161409 -3.22587,0.209137 -3.83763,0 -3.83763,-5.427211 0,-5.427211 z"
       id="path1144"
       style="opacity:1;fill:#ffffff;fill-opacity:1;stroke:none;stroke-width:1.31956828;stroke-linecap:round;stroke-linejoin:round;stroke-miterlimit:4;stroke-dasharray:none;stroke-opacity:1" />
    <path
       inkscape:connector-curvature="0"
       d="m -104.67918,95.342965 c 0.71391,-0.01618 1.42403,-0.09038 2.13334,-0.16819 1.44306,-0.178861 2.88522,-0.36537 4.331667,-0.514721 1.583768,-0.152553 3.170183,-0.274495 4.757385,-0.384564 1.336807,-0.09316 2.6719,-0.208147 4.008565,-0.303071 0.98312,-0.06939 1.964316,-0.162748 2.947252,-0.234367 0.655066,-0.04561 1.311497,-0.06534 1.967969,-0.07413 -0.09105,0.03817 0.442255,-0.02602 0.318544,-0.01325 -0.06864,0.0068 -0.137415,0.01325 -0.206017,0.02042 -0.0157,0.0014 -0.06193,0.01325 -0.04698,0.0083 0.03551,-0.01188 0.0728,-0.01953 0.109263,-0.02929 0.341753,-0.0855 0.687765,-0.150094 1.037097,-0.194818 0.161251,-0.01844 0.323125,-0.03114 0.485196,-0.03933 0.04336,-0.0027 0.17331,-0.01188 0.130369,-0.0048 -0.776155,0.121526 -0.1853,-0.04629 -1.057827,0.277261 3.375147,-1.826402 5.958045,2.946788 2.582896,4.77317 v 0 c -0.234079,0.09316 -0.459896,0.210626 -0.702262,0.279446 -0.274351,0.07788 -0.51635,0.08524 -0.782985,0.102538 -0.08643,0.0083 -0.18752,0.03339 -0.286542,0.04937 -0.493171,0.13226 -0.996442,0.21376 -1.508657,0.199229 -0.549366,0.0068 -1.098713,0.02287 -1.646946,0.06043 -0.986017,0.07123 -1.970175,0.16653 -2.956437,0.235016 -1.339534,0.09488 -2.677404,0.210933 -4.01708,0.303685 -1.527259,0.105822 -3.053729,0.222937 -4.577738,0.369111 -1.43548,0.14688 -2.866102,0.33636 -4.298392,0.51119 -0.90468,0.0981 -1.81095,0.18765 -2.72166,0.20017 -3.83762,0 -3.83762,-5.427206 0,-5.427206 z"
       id="path1146"
       style="opacity:1;fill:#ffffff;fill-opacity:1;stroke:none;stroke-width:1.31956828;stroke-linecap:round;stroke-linejoin:round;stroke-miterlimit:4;stroke-dasharray:none;stroke-opacity:1" />
    <path
       inkscape:connector-curvature="0"
       d="m -103.07614,99.395103 c 0.008,-0.01905 0.0261,-0.07762 0.0251,-0.05688 -0.003,0.0562 -0.0212,0.110451 -0.031,0.165848 -0.0157,0.08893 -0.0311,0.17783 -0.0456,0.266916 -0.062,0.380793 -0.11493,0.761973 -0.16123,1.144953 -0.0548,0.67105 -0.13518,1.35398 -0.0608,2.0274 0.008,0.0747 0.028,0.14765 0.0421,0.22148 0.0242,0.0876 0.10793,0.43073 0.22866,0.46105 0.009,0.003 0.0119,-0.0195 0.0214,-0.0207 0.0175,-0.003 0.0341,0.008 0.0512,0.0119 0.0139,-0.003 0.0279,-0.0106 0.0416,-0.008 0.0462,0.0105 0.0888,0.0326 0.13384,0.047 0.13748,0.044 0.3346,0.0978 0.46821,0.12735 0.28976,0.064 0.38587,0.0705 0.68749,0.11202 1.08213,0.11072 2.171985,0.10583 3.258505,0.11098 1.376431,0.0168 2.752119,-0.0418 4.124282,-0.1456 1.338708,-0.11467 2.668251,-0.30979 3.995108,-0.51734 1.150192,-0.17453 2.293458,-0.39048 3.436369,-0.60665 0.884413,-0.16681 1.770466,-0.32413 2.657783,-0.47454 0.525625,-0.0949 1.051696,-0.1901 1.574169,-0.30138 0.428674,-0.10874 0.863257,-0.18943 1.301754,-0.24539 0.170286,-0.0132 0.341544,-0.0402 0.512836,-0.0386 0.04621,3.6e-4 -0.0929,6.8e-4 -0.138515,0.008 -0.634912,0.10199 -0.448719,0.10583 -1.250493,0.51499 -0.05103,0.0438 -0.101997,0.0876 -0.153091,0.13156 2.729763,-2.697369 6.544406,1.16308 3.814659,3.86045 v 0 c -0.0863,0.0788 -0.172722,0.1575 -0.25907,0.23623 -0.323194,0.17589 -0.631795,0.38173 -0.969568,0.52765 -0.278464,0.12034 -0.599009,0.12325 -0.896341,0.14646 -0.28647,0.0298 -0.564985,0.10741 -0.845463,0.16958 -0.592669,0.12352 -1.187873,0.236 -1.78404,0.34124 -0.85336,0.1446 -1.705477,0.29589 -2.556044,0.45628 -1.199755,0.22692 -2.400022,0.45276 -3.607358,0.63618 -1.47055,0.22943 -2.944313,0.44359 -4.428192,0.56725 -1.515827,0.11217 -3.035164,0.17934 -4.555573,0.16064 -1.348177,-0.007 -2.701207,-0.005 -4.041377,-0.17171 -0.22858,-0.0361 -0.4584,-0.0651 -0.68572,-0.10833 -1.23108,-0.23435 -2.41356,-0.67138 -3.40747,-1.4509 -0.51721,-0.48175 -0.6569,-0.56269 -1.07038,-1.14959 -0.55179,-0.78319 -0.86432,-1.69899 -1.03366,-2.63424 -0.0292,-0.2345 -0.0674,-0.46807 -0.0879,-0.70352 -0.086,-0.98621 1.8e-4,-1.98091 0.0945,-2.9626 0.10755,-0.864175 0.21919,-1.733683 0.45081,-2.574848 1.21357,-3.640692 6.36227,-1.924454 5.14873,1.716238 z"
       id="path1148"
       style="opacity:1;fill:#ffffff;fill-opacity:1;stroke:none;stroke-width:1.31956828;stroke-linecap:round;stroke-linejoin:round;stroke-miterlimit:4;stroke-dasharray:none;stroke-opacity:1" />
    <path
       inkscape:connector-curvature="0"
       d="m -162.54934,117.53564 c 0,1.20488 0,2.4098 0,3.61469 0,1.66128 0,3.32257 0,4.98386 0,1.24224 0,2.48447 0,3.72671 0,0.72456 0,1.44913 0,2.17371 0,0.31844 0,0.63688 0,0.95531 0,0.0671 0.018,0.26611 0,0.20139 -0.0195,-0.0705 -0.003,-0.14606 -0.005,-0.2191 -0.19515,-0.86162 -0.25724,-1.46188 -1.55058,-1.92231 -0.70061,-0.24941 -1.5033,0.0119 -2.22158,0.20483 -0.35142,0.0942 -0.82514,0.9172 -0.59815,0.47065 0.31678,-0.6839 0.60527,-1.37928 0.92028,-2.06518 0.51804,-1.20887 1.29112,-2.25649 2.18414,-3.21051 0.94961,-0.93634 2.05967,-1.59161 3.29301,-2.07473 0.85355,-0.27679 1.74085,-0.42995 2.64007,-0.35618 0.5645,0.0463 0.74764,0.11546 1.28456,0.25138 1.18698,0.39503 2.15976,1.17851 2.83307,2.22974 0.12734,0.19874 0.23036,0.412 0.34553,0.618 0.50611,1.05846 0.66235,2.2151 0.73237,3.37226 0.0279,0.6373 0.0215,1.27537 0.0169,1.91306 -6.8e-4,0.15465 -0.003,0.27463 -0.003,0.42847 -3.4e-4,0.0651 0.0106,0.25965 -6.8e-4,0.19556 -0.20718,-1.11538 0.0799,-0.4082 -0.40986,-1.33941 2.30502,2.78887 -1.63904,6.04866 -3.94406,3.25978 v 0 c -0.17681,-0.28468 -0.40832,-0.54197 -0.53043,-0.85407 -0.23657,-0.60458 -0.24225,-1.12427 -0.22815,-1.7276 0.004,-0.52727 0.009,-1.0548 -0.008,-1.58189 -0.0227,-0.43008 -0.0617,-0.85818 -0.15051,-1.28025 -0.0238,-0.0702 -0.097,-0.18537 -0.10544,-0.25748 -0.004,-0.0363 0.10016,0.007 0.0999,-0.0416 -0.29243,-0.1119 -0.45676,-0.13668 -0.78388,-0.0354 -0.52248,0.16153 -0.98154,0.47973 -1.3959,0.83077 -0.53073,0.50922 -0.92234,1.12721 -1.22001,1.79819 -0.35127,0.76266 -0.66386,1.54048 -1.03284,2.29461 -0.25496,0.48261 -0.64537,1.29082 -1.17646,1.4694 -0.74346,0.24996 -1.59106,0.52238 -2.33656,0.27853 -1.37476,-0.4497 -1.46447,-1.18053 -1.71609,-2.13061 -0.0523,-0.55845 -0.0593,-1.11471 -0.0485,-1.67573 0,-0.72457 0,-1.44914 0,-2.17371 0,-1.24224 0,-2.48447 0,-3.72671 0,-1.66128 0,-3.32256 0,-4.98385 0,-1.20489 0,-2.4098 0,-3.61469 0,-3.61815 5.11682,-3.61815 5.11682,0 z"
       id="path1150"
       style="opacity:1;fill:#ffffff;fill-opacity:1;stroke:none;stroke-width:1.31956828;stroke-linecap:round;stroke-linejoin:round;stroke-miterlimit:4;stroke-dasharray:none;stroke-opacity:1" />
    <path
       inkscape:connector-curvature="0"
       d="m -142.60159,128.79334 c -0.45795,0.56042 -0.84767,1.16721 -1.15599,1.82138 -0.29559,0.59786 -0.41742,1.24239 -0.48468,1.89916 -0.001,0.0413 -0.0416,0.54453 0.008,0.60844 0.0334,0.0429 0.009,-0.10953 6.8e-4,-0.16313 -0.0597,-0.36301 -0.12179,-0.37225 -0.33874,-0.73366 -0.13116,-0.11413 -0.25437,-0.28565 -0.41717,-0.36808 -0.0417,-0.0211 -0.14391,-0.005 -0.13103,-0.0505 0.0152,-0.0529 0.10622,-0.0287 0.1586,-0.0455 0.0785,-0.0254 0.1559,-0.0545 0.23385,-0.0817 0.7288,-0.26138 1.3167,-0.7504 1.83877,-1.30706 0.42196,-0.48049 0.61321,-1.06866 0.73451,-1.68263 0.0801,-0.50683 0.0877,-1.02104 0.0883,-1.533 -0.0283,-1.54628 0.66052,-2.71613 2.52044,-3.0827 1.43383,-0.28261 1.97243,0.73444 2.62343,1.56038 0.48073,0.99629 0.7753,2.06793 1.07078,3.12999 0.14366,0.49921 0.28621,0.99871 0.40153,1.50539 0.0674,0.29616 0.11071,0.59542 0.21346,0.88168 -0.0132,-0.18831 -0.0276,-0.13964 0.12325,0.0896 1.91182,3.07179 -2.43234,5.77552 -4.34417,2.70372 v 0 c -0.45297,-0.74458 -0.22264,-0.32442 -0.66523,-1.27433 -0.24913,-0.83767 -0.39084,-1.7014 -0.65848,-2.53473 -0.0828,-0.29739 -0.15749,-0.59708 -0.24696,-0.89252 -0.10834,-0.35756 -0.26597,-0.70982 -0.35884,-1.0715 -0.003,-0.008 0.0154,0.003 0.0231,0.004 0.57275,0.60488 1.06058,1.29682 2.18916,1.00227 0.81242,-0.21201 1.45151,-0.87423 2.05142,-1.46167 0.17719,-0.1735 0.12681,-0.47968 0.17877,-0.72216 0.005,-0.0267 -0.005,-0.1086 -0.007,-0.0815 -0.003,0.0852 6.8e-4,0.17048 0.001,0.25571 -0.003,0.8765 -0.0359,1.7561 -0.20718,2.61846 -0.37278,1.62548 -0.93348,2.91034 -2.07235,4.16177 -1.22238,1.22633 -2.43503,2.12014 -4.10653,2.65513 -0.25812,0.0678 -0.51285,0.15014 -0.77435,0.20339 -1.11549,0.22719 -2.30273,0.16103 -3.31228,-0.41049 -0.26924,-0.15244 -0.50348,-0.35979 -0.75521,-0.53968 -0.22785,-0.28512 -0.49233,-0.54445 -0.68354,-0.85535 -0.55976,-0.91014 -0.5482,-2.03371 -0.46635,-3.05601 0.14502,-1.23891 0.4174,-2.45497 0.97445,-3.58095 0.50541,-1.01191 1.09249,-1.97696 1.82048,-2.84663 2.31629,-2.77952 6.24715,0.49619 3.93088,3.27573 z"
       id="path1152"
       style="opacity:1;fill:#ffffff;fill-opacity:1;stroke:none;stroke-width:1.31956828;stroke-linecap:round;stroke-linejoin:round;stroke-miterlimit:4;stroke-dasharray:none;stroke-opacity:1" />
    <path
       inkscape:connector-curvature="0"
       d="m -127.63181,126.6945 c 0,0.8965 0,1.793 0,2.68952 0,0.92347 0,1.84694 0,2.77042 0.005,0.58905 0.008,1.17569 -0.0374,1.76293 -0.0424,0.19477 -0.0848,0.38955 -0.1272,0.58432 -0.95482,3.48987 -5.89025,2.13956 -4.93544,-1.35032 v 0 c -0.008,0.068 -0.0154,0.13597 -0.0232,0.20395 0.003,0.0277 0.005,0.11098 0.007,0.0833 0.0161,-0.3199 0,-0.64548 0,-0.96575 0,-0.10609 0,-0.21223 0,-0.31835 0,-0.92347 0,-1.84694 0,-2.77042 0,-0.89652 0,-1.79301 0,-2.68951 0,-3.61814 5.11682,-3.61814 5.11682,0 z"
       id="path1154"
       style="opacity:1;fill:#ffffff;fill-opacity:1;stroke:none;stroke-width:1.31956828;stroke-linecap:round;stroke-linejoin:round;stroke-miterlimit:4;stroke-dasharray:none;stroke-opacity:1" />
    <path
       inkscape:connector-curvature="0"
       d="m -131.12324,124.59973 c 1.12331,-0.79105 2.4047,-1.28548 3.71424,-1.66696 1.24146,-0.29409 2.57181,-0.44758 3.83493,-0.174 0.27395,0.0593 0.53821,0.15681 0.80731,0.23521 1.20362,0.46015 2.25339,1.28131 2.94917,2.37466 0.1613,0.25348 0.2886,0.52704 0.43291,0.79058 0.60756,1.3365 0.73893,2.79397 0.80529,4.24062 0.0298,0.90948 0.0221,1.8196 0.0166,2.72939 0.0106,0.40957 -0.0306,0.81766 -0.0691,1.22472 -0.34951,3.60122 -5.44239,3.10693 -5.09288,-0.49429 v 0 c 0.0255,-0.25342 0.0612,-0.50522 0.0453,-0.76097 0.005,-0.82458 0.0119,-1.64941 -0.0119,-2.47377 -0.0301,-0.72296 -0.0615,-1.45499 -0.25902,-2.15549 -0.036,-0.14498 -0.099,-0.27867 -0.19418,-0.39623 -0.0335,-0.0415 -0.0843,-0.0687 -0.11111,-0.11481 -0.007,-0.0119 0.0397,-0.0168 0.0298,-0.0254 -0.0436,-0.0383 -0.10201,-0.0552 -0.15305,-0.0828 -0.18321,-0.24308 -1.3678,-0.0597 -1.63637,0.005 -0.80282,0.21559 -1.58845,0.515 -2.26981,1.0011 -3.01048,2.00699 -5.84879,-2.25047 -2.83831,-4.25745 z"
       id="path1156"
       style="opacity:1;fill:#ffffff;fill-opacity:1;stroke:none;stroke-width:1.31956828;stroke-linecap:round;stroke-linejoin:round;stroke-miterlimit:4;stroke-dasharray:none;stroke-opacity:1" />
    <path
       inkscape:connector-curvature="0"
       d="m -108.05089,127.09169 c -0.71139,0.25139 -1.33568,0.67357 -1.89943,1.1716 -0.59003,0.57469 -1.02425,1.2067 -1.31706,1.97776 -0.14896,0.53548 -0.29273,1.12256 -0.14211,1.67319 0.0198,0.0572 0.0283,0.11969 0.0595,0.17119 0.007,0.0105 0.0178,-0.0189 0.0281,-0.0265 0.009,-0.007 0.0306,-0.004 0.0279,-0.0146 -0.014,-0.0487 -0.11124,-0.20164 -0.10253,-0.21609 0.0119,-0.0206 0.0475,-0.004 0.0714,-0.004 0.45916,0.0786 0.91304,-0.0186 1.3412,-0.18415 0.3459,-0.21805 0.74182,-0.43708 0.89256,-0.8433 0.10372,-0.38154 0.13342,-0.78707 0.11955,-1.18156 -0.008,-0.2393 0.0154,-0.51154 -0.20957,-0.64916 -0.0567,-0.0597 -0.11349,-0.11929 -0.17023,-0.17884 -1.99378,-2.25678 1.15891,-5.11115 3.15269,-2.85439 v 0 c 0.13937,0.16239 0.27876,0.32477 0.41814,0.48715 0.13711,0.20252 0.28623,0.39725 0.41132,0.60758 0.4589,0.77141 0.61243,1.68402 0.62724,2.57057 -0.009,1.19284 -0.15612,2.38136 -0.74504,3.43947 -0.13064,0.20144 -0.24905,0.41159 -0.39195,0.60433 -0.704,0.94965 -1.70512,1.60742 -2.7733,2.06223 -0.22014,0.07 -0.43694,0.15164 -0.66042,0.20964 -1.10465,0.28655 -2.26607,0.27719 -3.36373,-0.0322 -0.58669,-0.22456 -0.88059,-0.28976 -1.39578,-0.69288 -0.82596,-0.64628 -1.30384,-1.56078 -1.51092,-2.58117 -0.0325,-0.23774 -0.0784,-0.47401 -0.0977,-0.71326 -0.0897,-1.11817 0.14434,-2.24076 0.50549,-3.2906 0.0941,-0.22278 0.17884,-0.44991 0.28255,-0.6683 0.5339,-1.12436 1.32028,-2.09482 2.21494,-2.94433 0.19508,-0.16357 0.384,-0.33498 0.58522,-0.4907 0.74971,-0.58019 1.59275,-1.03879 2.47098,-1.38396 2.77689,-1.12444 4.34773,2.85107 1.57084,3.97552 z"
       id="path1158"
       style="opacity:1;fill:#ffffff;fill-opacity:1;stroke:none;stroke-width:1.09747243;stroke-linecap:round;stroke-linejoin:round;stroke-miterlimit:4;stroke-dasharray:none;stroke-opacity:1" />
    <path
       inkscape:connector-curvature="0"
       d="m -111.23242,140.40093 c 0.65504,0.13596 1.31235,0.14406 1.97398,0.0719 0.69255,-0.11031 1.27948,-0.46537 1.81728,-0.90236 0.52024,-0.52419 0.94418,-1.15087 1.21654,-1.84111 0.23554,-0.78517 0.25989,-1.61288 0.28788,-2.42689 0.0332,-0.89986 0.0309,-1.79498 -0.10095,-2.68619 -0.12627,-0.79293 -0.45507,-1.53415 -0.79231,-2.25522 -0.26679,-0.61953 -0.59096,-1.2088 -0.91518,-1.79832 -0.29292,-0.67248 -0.16639,-0.35366 -0.38722,-0.95332 -1.03553,-2.84038 2.93246,-4.32294 3.96801,-1.48255 v 0 c 0.10663,0.29727 0.0761,0.17653 0.11572,0.35504 0.37098,0.67642 0.74014,1.35365 1.04872,2.06259 0.5088,1.10763 0.97625,2.24813 1.14928,3.46594 0.15666,1.14448 0.19181,2.2925 0.14064,3.44714 -0.05,1.35354 -0.1443,2.71959 -0.64206,3.99341 -0.10188,0.22601 -0.19417,0.45672 -0.3057,0.67803 -0.54545,1.08262 -1.31547,2.04981 -2.2181,2.8457 -0.19919,0.15008 -0.39192,0.30939 -0.5976,0.45025 -1.01532,0.69535 -2.16924,1.14513 -3.38407,1.31033 -1.07294,0.0957 -2.14504,0.0872 -3.2045,-0.13569 -2.93271,-0.59376 -2.10322,-4.79238 0.82951,-4.19862 z"
       id="path1160"
       style="opacity:1;fill:#ffffff;fill-opacity:1;stroke:none;stroke-width:1.09747243;stroke-linecap:round;stroke-linejoin:round;stroke-miterlimit:4;stroke-dasharray:none;stroke-opacity:1" />
    <path
       inkscape:connector-curvature="0"
       d="m -96.069152,127.57172 c 0.768965,-0.41199 1.547223,-0.81024 2.328027,-1.20053 0.787348,-0.39475 1.547831,-0.83839 2.340419,-1.22302 0.354671,-0.16063 0.628216,-0.4154 0.962635,-0.62181 0.696944,-0.32451 0.2467,-0.134 0.130506,-0.0481 -0.09606,0.0712 -0.188871,0.14873 -0.269387,0.23758 -0.172964,0.19087 -0.193277,0.27096 -0.289108,0.4828 -0.10081,0.21347 -0.02943,0.47747 0.07796,0.77285 0.01686,0.0328 0.07928,0.121 0.05053,0.0982 -0.111373,-0.0885 -0.185512,-0.30017 -0.300976,-0.42253 -0.09329,-0.10292 -0.170837,-0.21881 -0.258381,-0.3265 -0.03257,-0.0399 0.06773,0.0788 0.09475,0.12299 0.0068,0.0106 -0.02206,-0.0139 -0.03216,-0.0207 -0.216177,-0.16329 -0.01796,-0.023 -0.202991,-0.15155 0.08392,0.0384 -0.104776,-0.0575 -0.0834,-0.0359 0.01796,0.0182 0.07812,0.0552 0.05258,0.0559 -0.110185,0.001 -0.219958,-0.0159 -0.329946,-0.0238 -0.507305,-0.0494 -0.994524,0.0687 -1.46868,0.23777 -0.662884,0.2095 -1.217568,0.62494 -1.735799,1.07889 -0.429179,0.43924 -0.853073,0.90985 -1.136494,1.46126 -0.257698,0.49401 -0.47395,1.00206 -0.582721,1.55033 -0.03756,0.3802 -0.128923,0.77829 -0.07878,1.16158 0.04056,0.0393 0.04404,0.10241 0.07388,0.14715 0.01189,0.018 0.01189,-0.0513 0.03325,-0.0554 0.31952,0.10028 0.654111,0.25689 0.971978,0.38557 0.443866,0.17547 0.924016,0.21338 1.395312,0.24358 0.56148,0.026 1.123703,0.0246 1.685622,0.0238 0.380406,-0.0245 0.752412,-0.11098 1.127581,-0.17488 0.2236,-0.0597 0.404093,-0.0198 0.542007,-0.0904 0.04145,-0.021 -0.09104,0.0207 -0.137428,0.0207 2.413547,-1.25991 4.173637,2.19542 1.760073,3.45531 v 0 c -0.488248,0.23711 -0.989012,0.4075 -1.532104,0.44878 -0.581508,0.0976 -1.160352,0.22479 -1.752995,0.22798 -0.651549,6.8e-4 -1.303521,0.001 -1.954382,-0.0326 -0.870831,-0.0632 -1.744137,-0.17767 -2.559656,-0.51247 -0.828184,-0.33529 -1.67053,-0.65913 -2.319731,-1.30648 -0.116378,-0.13157 -0.24252,-0.25489 -0.349407,-0.39446 -0.484492,-0.63249 -0.739792,-1.39222 -0.819162,-2.18204 -0.0263,-0.7375 0.0215,-1.47555 0.16311,-2.20087 0.2091,-0.92424 0.53753,-1.80427 0.993783,-2.63458 0.09712,-0.16767 0.187772,-0.33939 0.291464,-0.50299 0.468515,-0.73936 1.067653,-1.3971 1.694846,-1.99878 0.90229,-0.77 1.881492,-1.44421 3.017677,-1.80931 0.966413,-0.31403 1.959044,-0.5196 2.98041,-0.42292 0.811231,0.0687 1.611373,0.21099 2.283534,0.71209 0.381077,0.27847 0.771739,0.56815 1.044575,0.9627 0.281679,0.32711 0.515274,0.67742 0.747784,1.04035 0.0689,0.15223 0.153713,0.29797 0.206482,0.4566 0.195051,0.58643 0.1639,1.1976 0.01324,1.78709 -0.05258,0.13907 -0.09079,0.28477 -0.158158,0.41711 -0.26773,0.52511 -0.710865,0.97639 -1.264513,1.18664 -0.03257,0.0119 0.06002,-0.0359 0.09012,-0.0539 0.01189,-0.0106 0.05012,-0.0368 0.03551,-0.0313 -0.09606,0.0375 -0.163819,0.12641 -0.247238,0.18754 -0.306595,0.22451 -0.369406,0.26943 -0.694655,0.44463 -0.100413,0.0543 -0.204003,0.10226 -0.306007,0.15345 -0.778791,0.37637 -1.521289,0.82073 -2.297657,1.20198 -0.827419,0.41359 -1.649166,0.83799 -2.468583,1.26727 -2.481489,1.11648 -4.041199,-2.43615 -1.559718,-3.55263 z"
       id="path1162"
       style="opacity:1;fill:#ffffff;fill-opacity:1;stroke:none;stroke-width:0.99646682;stroke-linecap:round;stroke-linejoin:round;stroke-miterlimit:4;stroke-dasharray:none;stroke-opacity:1" />
    <path
       inkscape:connector-curvature="0"
       id="path1164"
       d="m -82.708961,121.35698 c -1.2792,0 -2.558511,0.90492 -2.558511,2.714 v 3.44362 c 0.02868,1.24811 0.135511,2.5115 0.466434,3.72047 0.06821,0.24912 0.155353,0.49292 0.233207,0.73919 0.429301,1.23254 1.169055,2.32573 2.284383,3.0338 0.224206,0.14234 0.471923,0.24344 0.707814,0.3655 1.214623,0.50115 2.531786,0.54274 3.788678,0.17048 0.248989,-0.0738 0.487855,-0.17866 0.731683,-0.26799 1.020752,-0.48726 1.91293,-1.18447 2.588505,-2.09686 0.414529,-0.55983 0.527563,-0.83283 0.841475,-1.4361 0.643066,-1.31308 0.967747,-2.7385 1.17834,-4.17599 0.06649,-0.5889 0.209846,-1.16504 0.338901,-1.74226 0.785953,-3.53175 -4.209016,-4.64326 -4.994959,-1.11151 -0.156632,0.70668 -0.323784,1.41316 -0.409817,2.133 -0.120347,0.88613 -0.300905,1.77129 -0.678502,2.58784 -0.193696,0.40873 -0.372733,0.78803 -0.730328,1.0774 -0.138936,0.0696 -0.240726,0.11442 -0.382539,0.1657 -0.01463,0.005 -0.02493,0.0181 -0.03815,0.0273 0.0016,0.0119 0.01662,0.0302 0.005,0.0355 -0.0202,0.0119 -0.04646,1.5e-4 -0.06956,0 -0.01189,0.0359 0.04114,0.0738 0.02801,0.10913 -0.0066,0.0197 -0.03889,-0.0153 -0.05792,-0.0245 -0.167262,-0.0786 -0.209305,-0.31143 -0.273439,-0.45619 -0.333451,-0.90973 -0.415725,-1.89095 -0.441181,-2.85309 v -3.44431 h 7.51e-4 c 0,-1.80908 -1.279298,-2.714 -2.558515,-2.714 z"
       style="opacity:1;fill:#ffffff;fill-opacity:1;stroke:none;stroke-width:1.31956828;stroke-linecap:round;stroke-linejoin:round;stroke-miterlimit:4;stroke-dasharray:none;stroke-opacity:1" />
    <path
       inkscape:connector-curvature="0"
       d="m -63.521461,115.4382 c -0.03471,1.21557 -0.230502,2.41679 -0.356482,3.62426 -0.128128,1.38363 -0.342254,2.75627 -0.457972,4.14157 -0.08445,1.16653 -0.182719,2.33133 -0.236514,3.49989 -0.03316,0.77559 -0.04338,1.55184 -0.04696,2.32804 -0.0016,0.45416 -4.9e-5,0.90831 7.51e-4,1.36245 7.51e-4,0.36801 7.51e-4,0.73602 7.51e-4,1.10403 5.7e-5,0.30349 5.7e-5,0.60697 4.1e-5,0.91045 -2.5e-5,3.61814 -5.116852,3.61812 -5.11682,-4e-5 v 0 c 0,-0.30306 9e-6,-0.60613 -4.1e-5,-0.9092 -9e-5,-0.36565 -1.8e-4,-0.7313 -7.51e-4,-1.09695 -7.51e-4,-0.46488 -0.0025,-0.9298 -7.51e-4,-1.39468 0.0042,-0.84724 0.01588,-1.69452 0.05252,-2.54106 0.05751,-1.23299 0.159084,-2.46224 0.249148,-3.69307 0.120871,-1.4202 0.332244,-2.82833 0.467891,-4.24641 0.108995,-1.03008 0.267363,-2.05472 0.328439,-3.08928 0,-3.61815 5.116829,-3.61815 5.116829,0 z"
       id="path1166"
       style="opacity:1;fill:#ffffff;fill-opacity:1;stroke:none;stroke-width:1.31956828;stroke-linecap:round;stroke-linejoin:round;stroke-miterlimit:4;stroke-dasharray:none;stroke-opacity:1" />
  </g>
</svg>
